<svg width="745" height="748" viewBox="0 0 745 748" fill="none" xmlns="http://www.w3.org/2000/svg">
<path d="M71.629 629.347L65.069 603.475C53.4379 598.546 41.538 594.276 29.426 590.687L28.598 602.711L25.24 589.464C10.219 585.17 0 583.281 0 583.281C0 583.281 13.8 635.77 42.754 675.898L76.488 681.824L50.281 685.603C53.9231 689.985 57.8371 694.134 62 698.025C104.115 737.117 151.024 755.053 166.773 738.085C182.522 721.117 161.148 675.673 119.033 636.585C105.977 624.466 89.576 614.741 73.158 607.085L71.629 629.347Z" fill="#C5C6DC"/>
<path d="M134.015 601.245L141.773 575.707C134.365 565.475 126.386 555.669 117.873 546.336L110.949 556.201L114.921 543.125C104.28 531.689 96.509 524.79 96.509 524.79C96.509 524.79 81.194 576.857 85.234 626.174L111.049 648.684L86.657 638.372C87.5105 644.007 88.7175 649.583 90.271 655.066C106.117 710.3 137.002 749.901 159.254 743.517C181.506 737.133 186.7 687.182 170.854 631.948C165.942 614.825 156.928 598.022 146.831 582.983L134.015 601.245Z" fill="#D4D5E8"/>
<path d="M519.751 176.983H515.659V64.883C515.659 56.3624 513.981 47.9253 510.72 40.0534C507.459 32.1814 502.68 25.0287 496.655 19.0038C490.63 12.9788 483.478 8.19959 475.606 4.93892C467.734 1.67824 459.297 0 450.776 0H213.269C196.061 0 179.558 6.83587 167.39 19.0038C155.222 31.1717 148.386 47.675 148.386 64.883V679.883C148.386 688.404 150.064 696.841 153.325 704.713C156.586 712.585 161.365 719.737 167.39 725.762C173.415 731.787 180.567 736.566 188.439 739.827C196.311 743.088 204.748 744.766 213.269 744.766H450.776C467.984 744.766 484.487 737.93 496.655 725.762C508.822 713.594 515.658 697.091 515.658 679.883V256.778H519.75L519.751 176.983Z" fill="#C5C6DC"/>
<path d="M453.394 16.874H422.394C423.82 20.3696 424.364 24.1622 423.979 27.9177C423.593 31.6731 422.29 35.2762 420.184 38.4094C418.078 41.5426 415.234 44.1098 411.902 45.8848C408.57 47.6598 404.853 48.5882 401.078 48.588H265.013C261.238 48.5878 257.521 47.6593 254.189 45.8841C250.858 44.109 248.014 41.5418 245.908 38.4086C243.802 35.2754 242.5 31.6725 242.114 27.9172C241.729 24.1619 242.273 20.3695 243.699 16.874H214.743C201.892 16.874 189.568 21.979 180.481 31.0659C171.394 40.1528 166.289 52.4772 166.289 65.328V679.435C166.289 692.286 171.394 704.61 180.481 713.697C189.568 722.784 201.892 727.889 214.743 727.889H453.394C466.245 727.889 478.569 722.784 487.656 713.697C496.743 704.61 501.848 692.286 501.848 679.435V65.327C501.848 52.4764 496.743 40.1522 487.656 31.0655C478.569 21.9788 466.245 16.874 453.394 16.874Z" fill="white"/>
<path d="M303.658 261.503C303.657 257.21 304.787 252.993 306.934 249.276C309.081 245.559 312.169 242.473 315.888 240.329C312.171 238.182 307.955 237.052 303.663 237.052C299.37 237.051 295.154 238.18 291.436 240.326C287.719 242.472 284.632 245.559 282.486 249.276C280.34 252.993 279.21 257.209 279.21 261.502C279.21 265.794 280.34 270.01 282.486 273.727C284.632 277.444 287.719 280.531 291.436 282.677C295.154 284.823 299.37 285.952 303.663 285.952C307.955 285.951 312.171 284.821 315.888 282.674C312.17 280.53 309.081 277.445 306.935 273.728C304.788 270.012 303.657 265.795 303.658 261.503Z" fill="#CCCCCC"/>
<path d="M334.395 261.503C334.394 257.21 335.524 252.993 337.671 249.276C339.818 245.559 342.906 242.473 346.625 240.329C342.908 238.182 338.692 237.052 334.4 237.052C330.107 237.051 325.891 238.18 322.173 240.326C318.456 242.472 315.369 245.559 313.223 249.276C311.077 252.993 309.947 257.209 309.947 261.502C309.947 265.794 311.077 270.01 313.223 273.727C315.369 277.444 318.456 280.531 322.173 282.677C325.891 284.823 330.107 285.952 334.4 285.952C338.692 285.951 342.908 284.821 346.625 282.674C342.907 280.53 339.818 277.445 337.672 273.728C335.525 270.012 334.394 265.795 334.395 261.503Z" fill="#CCCCCC"/>
<path d="M364.434 285.952C377.937 285.952 388.884 275.005 388.884 261.502C388.884 247.999 377.937 237.052 364.434 237.052C350.931 237.052 339.984 247.999 339.984 261.502C339.984 275.005 350.931 285.952 364.434 285.952Z" fill="#6C63FF"/>
<path d="M405.296 337.869H262.796C261.439 337.867 260.139 337.328 259.18 336.369C258.22 335.409 257.681 334.109 257.679 332.752V190.252C257.681 188.895 258.22 187.595 259.18 186.635C260.139 185.676 261.439 185.137 262.796 185.135H405.296C406.653 185.137 407.953 185.676 408.913 186.635C409.872 187.595 410.411 188.895 410.413 190.252V332.752C410.411 334.109 409.872 335.409 408.913 336.369C407.953 337.328 406.653 337.867 405.296 337.869ZM262.796 187.183C261.982 187.184 261.202 187.508 260.626 188.083C260.051 188.659 259.727 189.439 259.726 190.253V332.753C259.727 333.567 260.051 334.347 260.626 334.923C261.202 335.499 261.982 335.822 262.796 335.823H405.296C406.11 335.822 406.89 335.499 407.466 334.923C408.042 334.347 408.365 333.567 408.366 332.753V190.253C408.365 189.439 408.042 188.659 407.466 188.083C406.89 187.508 406.11 187.184 405.296 187.183H262.796Z" fill="#CCCCCC"/>
<path d="M437.114 447.102H218.562V449.149H437.114V447.102Z" fill="#CCCCCC"/>
<path d="M225.464 434.322C229.276 434.322 232.366 431.232 232.366 427.42C232.366 423.608 229.276 420.518 225.464 420.518C221.652 420.518 218.562 423.608 218.562 427.42C218.562 431.232 221.652 434.322 225.464 434.322Z" fill="#6C63FF"/>
<path d="M437.114 516.118H218.562V518.165H437.114V516.118Z" fill="#CCCCCC"/>
<path d="M225.464 503.339C229.276 503.339 232.366 500.249 232.366 496.437C232.366 492.625 229.276 489.535 225.464 489.535C221.652 489.535 218.562 492.625 218.562 496.437C218.562 500.249 221.652 503.339 225.464 503.339Z" fill="#6C63FF"/>
<path d="M433.114 594.71H364.046C362.853 594.709 361.709 594.235 360.866 593.391C360.022 592.547 359.547 591.403 359.546 590.21V566.002C359.547 564.809 360.022 563.665 360.866 562.822C361.709 561.978 362.853 561.504 364.046 561.502H433.114C434.308 561.504 435.451 561.978 436.295 562.822C437.139 563.665 437.613 564.809 437.614 566.002V590.21C437.613 591.403 437.139 592.547 436.295 593.391C435.451 594.235 434.308 594.709 433.114 594.71Z" fill="#6C63FF"/>
<path d="M247.978 434.322C251.79 434.322 254.88 431.232 254.88 427.42C254.88 423.608 251.79 420.518 247.978 420.518C244.166 420.518 241.076 423.608 241.076 427.42C241.076 431.232 244.166 434.322 247.978 434.322Z" fill="#6C63FF"/>
<path d="M270.492 434.322C274.304 434.322 277.394 431.232 277.394 427.42C277.394 423.608 274.304 420.518 270.492 420.518C266.68 420.518 263.59 423.608 263.59 427.42C263.59 431.232 266.68 434.322 270.492 434.322Z" fill="#6C63FF"/>
<path d="M247.978 503.339C251.79 503.339 254.88 500.249 254.88 496.437C254.88 492.625 251.79 489.535 247.978 489.535C244.166 489.535 241.076 492.625 241.076 496.437C241.076 500.249 244.166 503.339 247.978 503.339Z" fill="#6C63FF"/>
<path d="M270.492 503.339C274.304 503.339 277.394 500.249 277.394 496.437C277.394 492.625 274.304 489.535 270.492 489.535C266.68 489.535 263.59 492.625 263.59 496.437C263.59 500.249 266.68 503.339 270.492 503.339Z" fill="#6C63FF"/>
<path d="M564.677 489.461C565.167 489.686 565.639 489.949 566.087 490.249L610.94 471.106L612.541 459.29L630.462 459.181L629.403 486.279L570.204 501.935C570.079 502.346 569.93 502.75 569.756 503.143C568.9 504.969 567.524 506.502 565.8 507.549C564.075 508.595 562.08 509.109 560.065 509.026C558.05 508.942 556.104 508.265 554.473 507.08C552.841 505.894 551.596 504.253 550.894 502.362C550.192 500.471 550.064 498.415 550.527 496.452C550.99 494.489 552.022 492.706 553.495 491.328C554.967 489.95 556.814 489.037 558.804 488.705C560.793 488.373 562.836 488.636 564.677 489.461Z" fill="#FFB8B8"/>
<path d="M636.98 735.021H624.72L618.888 687.733L636.982 687.734L636.98 735.021Z" fill="#FFB8B8"/>
<path d="M615.963 731.518H639.607V746.405H601.076C601.076 742.456 602.644 738.67 605.436 735.878C608.228 733.086 612.015 731.518 615.963 731.518Z" fill="#2F2E41"/>
<path d="M684.66 731.557L672.459 732.759L662.018 686.271L680.025 684.497L684.66 731.557Z" fill="#FFB8B8"/>
<path d="M663.401 730.131L686.931 727.813L688.391 742.629L650.045 746.406C649.854 744.46 650.047 742.496 650.615 740.625C651.182 738.754 652.113 737.013 653.353 735.502C654.593 733.991 656.119 732.739 657.843 731.817C659.567 730.896 661.456 730.323 663.401 730.131Z" fill="#2F2E41"/>
<path d="M640.393 409.135C653.957 409.135 664.954 398.138 664.954 384.574C664.954 371.009 653.957 360.013 640.393 360.013C626.828 360.013 615.831 371.009 615.831 384.574C615.831 398.138 626.828 409.135 640.393 409.135Z" fill="#FFB8B8"/>
<path d="M621.98 725.458C620.927 725.461 619.906 725.091 619.098 724.415C618.291 723.738 617.748 722.798 617.565 721.761C611.22 686.535 590.477 571.355 589.981 568.165C589.97 568.092 589.965 568.018 589.966 567.943V559.355C589.965 559.043 590.063 558.738 590.245 558.483L592.985 554.645C593.115 554.461 593.286 554.309 593.484 554.2C593.683 554.092 593.903 554.03 594.129 554.02C609.751 553.288 660.913 551.142 663.385 554.23C665.867 557.333 664.99 566.736 664.789 568.59L664.799 568.783L687.784 715.778C687.964 716.951 687.675 718.147 686.98 719.108C686.285 720.069 685.239 720.717 684.069 720.913L669.713 723.278C668.644 723.45 667.548 723.232 666.626 722.665C665.704 722.097 665.016 721.217 664.687 720.186C660.247 705.997 645.358 658.268 640.198 639.799C640.166 639.682 640.092 639.581 639.991 639.514C639.889 639.448 639.767 639.42 639.647 639.437C639.527 639.454 639.417 639.514 639.338 639.606C639.259 639.698 639.216 639.816 639.218 639.938C639.476 657.543 640.099 702.461 640.313 717.975L640.337 719.645C640.346 720.777 639.931 721.87 639.173 722.71C638.416 723.55 637.37 724.075 636.244 724.182L622.4 725.439C622.26 725.452 622.119 725.458 621.98 725.458Z" fill="#2F2E41"/>
<path d="M624.805 418.792C620.519 421.34 617.954 426.023 616.482 430.787C613.757 439.609 612.117 448.729 611.598 457.947L610.042 485.547L590.787 558.717C607.476 572.838 617.102 569.629 639.568 558.078C662.033 546.528 664.6 561.929 664.6 561.929L669.092 499.671L675.511 431.639C674.07 429.904 672.439 428.336 670.649 426.964C664.716 422.351 657.814 419.145 650.462 417.587C643.11 416.028 635.501 416.159 628.207 417.969L624.805 418.792Z" fill="#6C63FF"/>
<path d="M618.551 504.239C619.069 504.434 619.57 504.669 620.051 504.943L664.4 482.746L665.136 470.72L683.429 469.459L684.41 496.872L625.144 516.471C624.66 518.547 623.556 520.426 621.978 521.858C620.4 523.291 618.423 524.209 616.311 524.491C614.198 524.773 612.05 524.405 610.151 523.436C608.253 522.468 606.694 520.944 605.683 519.068C604.672 517.192 604.256 515.052 604.49 512.934C604.724 510.815 605.598 508.819 606.995 507.209C608.392 505.599 610.246 504.453 612.31 503.922C614.374 503.392 616.551 503.502 618.551 504.239Z" fill="#FFB8B8"/>
<path d="M675.19 431.95C686.101 435.801 688.023 477.524 688.023 477.524C675.186 470.463 659.782 482.017 659.782 482.017C659.782 482.017 656.573 471.105 652.721 456.985C651.558 453.013 651.419 448.811 652.317 444.771C653.215 440.731 655.12 436.984 657.856 433.878C657.856 433.878 664.278 428.097 675.19 431.95Z" fill="#7D75FF"/>
<path d="M662.415 391.069C659.355 388.621 655.18 393.071 655.18 393.071L652.732 371.037C652.732 371.037 637.431 372.87 627.638 370.426C617.846 367.981 616.316 379.301 616.316 379.301C615.811 374.728 615.708 370.12 616.01 365.53C616.621 360.021 624.578 354.513 638.655 350.841C652.732 347.168 660.076 363.082 660.076 363.082C669.869 367.977 665.475 393.517 662.415 391.069Z" fill="#2F2E41"/>
<path d="M387.469 580.949H383.873L383.189 583H381.009L384.714 573.047H386.614L390.34 583H388.159L387.469 580.949ZM384.427 579.288H386.915L385.664 575.562L384.427 579.288ZM398.68 573.047V579.603C398.68 580.692 398.338 581.553 397.654 582.187C396.975 582.82 396.046 583.137 394.865 583.137C393.703 583.137 392.78 582.829 392.097 582.214C391.413 581.599 391.064 580.753 391.051 579.678V573.047H393.102V579.616C393.102 580.268 393.257 580.744 393.566 581.045C393.881 581.341 394.314 581.489 394.865 581.489C396.018 581.489 396.604 580.883 396.622 579.671V573.047H398.68ZM407.854 574.708H404.805V583H402.754V574.708H399.746V573.047H407.854V574.708ZM417.13 583H415.079V578.734H411.08V583H409.029V573.047H411.08V577.08H415.079V573.047H417.13V583Z" fill="white"/>
<path d="M271.047 106.938V124H268.82V106.938H271.047ZM276.531 106.938V108.789H263.348V106.938H276.531ZM282.824 124.234C281.941 124.234 281.141 124.086 280.422 123.789C279.711 123.484 279.098 123.059 278.582 122.512C278.074 121.965 277.684 121.316 277.41 120.566C277.137 119.816 277 118.996 277 118.105V117.613C277 116.582 277.152 115.664 277.457 114.859C277.762 114.047 278.176 113.359 278.699 112.797C279.223 112.234 279.816 111.809 280.48 111.52C281.145 111.23 281.832 111.086 282.543 111.086C283.449 111.086 284.23 111.242 284.887 111.555C285.551 111.867 286.094 112.305 286.516 112.867C286.938 113.422 287.25 114.078 287.453 114.836C287.656 115.586 287.758 116.406 287.758 117.297V118.27H278.289V116.5H285.59V116.336C285.559 115.773 285.441 115.227 285.238 114.695C285.043 114.164 284.73 113.727 284.301 113.383C283.871 113.039 283.285 112.867 282.543 112.867C282.051 112.867 281.598 112.973 281.184 113.184C280.77 113.387 280.414 113.691 280.117 114.098C279.82 114.504 279.59 115 279.426 115.586C279.262 116.172 279.18 116.848 279.18 117.613V118.105C279.18 118.707 279.262 119.273 279.426 119.805C279.598 120.328 279.844 120.789 280.164 121.188C280.492 121.586 280.887 121.898 281.348 122.125C281.816 122.352 282.348 122.465 282.941 122.465C283.707 122.465 284.355 122.309 284.887 121.996C285.418 121.684 285.883 121.266 286.281 120.742L287.594 121.785C287.32 122.199 286.973 122.594 286.551 122.969C286.129 123.344 285.609 123.648 284.992 123.883C284.383 124.117 283.66 124.234 282.824 124.234ZM295.363 122.453C295.879 122.453 296.355 122.348 296.793 122.137C297.23 121.926 297.59 121.637 297.871 121.27C298.152 120.895 298.312 120.469 298.352 119.992H300.414C300.375 120.742 300.121 121.441 299.652 122.09C299.191 122.73 298.586 123.25 297.836 123.648C297.086 124.039 296.262 124.234 295.363 124.234C294.41 124.234 293.578 124.066 292.867 123.73C292.164 123.395 291.578 122.934 291.109 122.348C290.648 121.762 290.301 121.09 290.066 120.332C289.84 119.566 289.727 118.758 289.727 117.906V117.414C289.727 116.562 289.84 115.758 290.066 115C290.301 114.234 290.648 113.559 291.109 112.973C291.578 112.387 292.164 111.926 292.867 111.59C293.578 111.254 294.41 111.086 295.363 111.086C296.355 111.086 297.223 111.289 297.965 111.695C298.707 112.094 299.289 112.641 299.711 113.336C300.141 114.023 300.375 114.805 300.414 115.68H298.352C298.312 115.156 298.164 114.684 297.906 114.262C297.656 113.84 297.312 113.504 296.875 113.254C296.445 112.996 295.941 112.867 295.363 112.867C294.699 112.867 294.141 113 293.688 113.266C293.242 113.523 292.887 113.875 292.621 114.32C292.363 114.758 292.176 115.246 292.059 115.785C291.949 116.316 291.895 116.859 291.895 117.414V117.906C291.895 118.461 291.949 119.008 292.059 119.547C292.168 120.086 292.352 120.574 292.609 121.012C292.875 121.449 293.23 121.801 293.676 122.066C294.129 122.324 294.691 122.453 295.363 122.453ZM305.02 106V124H302.852V106H305.02ZM304.504 117.18L303.602 117.145C303.609 116.277 303.738 115.477 303.988 114.742C304.238 114 304.59 113.355 305.043 112.809C305.496 112.262 306.035 111.84 306.66 111.543C307.293 111.238 307.992 111.086 308.758 111.086C309.383 111.086 309.945 111.172 310.445 111.344C310.945 111.508 311.371 111.773 311.723 112.141C312.082 112.508 312.355 112.984 312.543 113.57C312.73 114.148 312.824 114.855 312.824 115.691V124H310.645V115.668C310.645 115.004 310.547 114.473 310.352 114.074C310.156 113.668 309.871 113.375 309.496 113.195C309.121 113.008 308.66 112.914 308.113 112.914C307.574 112.914 307.082 113.027 306.637 113.254C306.199 113.48 305.82 113.793 305.5 114.191C305.188 114.59 304.941 115.047 304.762 115.562C304.59 116.07 304.504 116.609 304.504 117.18ZM332.652 118.574H334.902C334.785 119.652 334.477 120.617 333.977 121.469C333.477 122.32 332.77 122.996 331.855 123.496C330.941 123.988 329.801 124.234 328.434 124.234C327.434 124.234 326.523 124.047 325.703 123.672C324.891 123.297 324.191 122.766 323.605 122.078C323.02 121.383 322.566 120.551 322.246 119.582C321.934 118.605 321.777 117.52 321.777 116.324V114.625C321.777 113.43 321.934 112.348 322.246 111.379C322.566 110.402 323.023 109.566 323.617 108.871C324.219 108.176 324.941 107.641 325.785 107.266C326.629 106.891 327.578 106.703 328.633 106.703C329.922 106.703 331.012 106.945 331.902 107.43C332.793 107.914 333.484 108.586 333.977 109.445C334.477 110.297 334.785 111.285 334.902 112.41H332.652C332.543 111.613 332.34 110.93 332.043 110.359C331.746 109.781 331.324 109.336 330.777 109.023C330.23 108.711 329.516 108.555 328.633 108.555C327.875 108.555 327.207 108.699 326.629 108.988C326.059 109.277 325.578 109.688 325.188 110.219C324.805 110.75 324.516 111.387 324.32 112.129C324.125 112.871 324.027 113.695 324.027 114.602V116.324C324.027 117.16 324.113 117.945 324.285 118.68C324.465 119.414 324.734 120.059 325.094 120.613C325.453 121.168 325.91 121.605 326.465 121.926C327.02 122.238 327.676 122.395 328.434 122.395C329.395 122.395 330.16 122.242 330.73 121.938C331.301 121.633 331.73 121.195 332.02 120.625C332.316 120.055 332.527 119.371 332.652 118.574ZM339.824 106V124H337.656V106H339.824ZM339.309 117.18L338.406 117.145C338.414 116.277 338.543 115.477 338.793 114.742C339.043 114 339.395 113.355 339.848 112.809C340.301 112.262 340.84 111.84 341.465 111.543C342.098 111.238 342.797 111.086 343.562 111.086C344.188 111.086 344.75 111.172 345.25 111.344C345.75 111.508 346.176 111.773 346.527 112.141C346.887 112.508 347.16 112.984 347.348 113.57C347.535 114.148 347.629 114.855 347.629 115.691V124H345.449V115.668C345.449 115.004 345.352 114.473 345.156 114.074C344.961 113.668 344.676 113.375 344.301 113.195C343.926 113.008 343.465 112.914 342.918 112.914C342.379 112.914 341.887 113.027 341.441 113.254C341.004 113.48 340.625 113.793 340.305 114.191C339.992 114.59 339.746 115.047 339.566 115.562C339.395 116.07 339.309 116.609 339.309 117.18ZM356.137 124.234C355.254 124.234 354.453 124.086 353.734 123.789C353.023 123.484 352.41 123.059 351.895 122.512C351.387 121.965 350.996 121.316 350.723 120.566C350.449 119.816 350.312 118.996 350.312 118.105V117.613C350.312 116.582 350.465 115.664 350.77 114.859C351.074 114.047 351.488 113.359 352.012 112.797C352.535 112.234 353.129 111.809 353.793 111.52C354.457 111.23 355.145 111.086 355.855 111.086C356.762 111.086 357.543 111.242 358.199 111.555C358.863 111.867 359.406 112.305 359.828 112.867C360.25 113.422 360.562 114.078 360.766 114.836C360.969 115.586 361.07 116.406 361.07 117.297V118.27H351.602V116.5H358.902V116.336C358.871 115.773 358.754 115.227 358.551 114.695C358.355 114.164 358.043 113.727 357.613 113.383C357.184 113.039 356.598 112.867 355.855 112.867C355.363 112.867 354.91 112.973 354.496 113.184C354.082 113.387 353.727 113.691 353.43 114.098C353.133 114.504 352.902 115 352.738 115.586C352.574 116.172 352.492 116.848 352.492 117.613V118.105C352.492 118.707 352.574 119.273 352.738 119.805C352.91 120.328 353.156 120.789 353.477 121.188C353.805 121.586 354.199 121.898 354.66 122.125C355.129 122.352 355.66 122.465 356.254 122.465C357.02 122.465 357.668 122.309 358.199 121.996C358.73 121.684 359.195 121.266 359.594 120.742L360.906 121.785C360.633 122.199 360.285 122.594 359.863 122.969C359.441 123.344 358.922 123.648 358.305 123.883C357.695 124.117 356.973 124.234 356.137 124.234ZM368.676 122.453C369.191 122.453 369.668 122.348 370.105 122.137C370.543 121.926 370.902 121.637 371.184 121.27C371.465 120.895 371.625 120.469 371.664 119.992H373.727C373.688 120.742 373.434 121.441 372.965 122.09C372.504 122.73 371.898 123.25 371.148 123.648C370.398 124.039 369.574 124.234 368.676 124.234C367.723 124.234 366.891 124.066 366.18 123.73C365.477 123.395 364.891 122.934 364.422 122.348C363.961 121.762 363.613 121.09 363.379 120.332C363.152 119.566 363.039 118.758 363.039 117.906V117.414C363.039 116.562 363.152 115.758 363.379 115C363.613 114.234 363.961 113.559 364.422 112.973C364.891 112.387 365.477 111.926 366.18 111.59C366.891 111.254 367.723 111.086 368.676 111.086C369.668 111.086 370.535 111.289 371.277 111.695C372.02 112.094 372.602 112.641 373.023 113.336C373.453 114.023 373.688 114.805 373.727 115.68H371.664C371.625 115.156 371.477 114.684 371.219 114.262C370.969 113.84 370.625 113.504 370.188 113.254C369.758 112.996 369.254 112.867 368.676 112.867C368.012 112.867 367.453 113 367 113.266C366.555 113.523 366.199 113.875 365.934 114.32C365.676 114.758 365.488 115.246 365.371 115.785C365.262 116.316 365.207 116.859 365.207 117.414V117.906C365.207 118.461 365.262 119.008 365.371 119.547C365.48 120.086 365.664 120.574 365.922 121.012C366.188 121.449 366.543 121.801 366.988 122.066C367.441 122.324 368.004 122.453 368.676 122.453ZM378.344 106V124H376.164V106H378.344ZM386.09 111.32L380.559 117.238L377.465 120.449L377.289 118.141L379.504 115.492L383.441 111.32H386.09ZM384.109 124L379.586 117.953L380.711 116.02L386.664 124H384.109ZM390.684 111.32V124H388.504V111.32H390.684ZM388.34 107.957C388.34 107.605 388.445 107.309 388.656 107.066C388.875 106.824 389.195 106.703 389.617 106.703C390.031 106.703 390.348 106.824 390.566 107.066C390.793 107.309 390.906 107.605 390.906 107.957C390.906 108.293 390.793 108.582 390.566 108.824C390.348 109.059 390.031 109.176 389.617 109.176C389.195 109.176 388.875 109.059 388.656 108.824C388.445 108.582 388.34 108.293 388.34 107.957ZM399.426 124.234C398.543 124.234 397.742 124.086 397.023 123.789C396.312 123.484 395.699 123.059 395.184 122.512C394.676 121.965 394.285 121.316 394.012 120.566C393.738 119.816 393.602 118.996 393.602 118.105V117.613C393.602 116.582 393.754 115.664 394.059 114.859C394.363 114.047 394.777 113.359 395.301 112.797C395.824 112.234 396.418 111.809 397.082 111.52C397.746 111.23 398.434 111.086 399.145 111.086C400.051 111.086 400.832 111.242 401.488 111.555C402.152 111.867 402.695 112.305 403.117 112.867C403.539 113.422 403.852 114.078 404.055 114.836C404.258 115.586 404.359 116.406 404.359 117.297V118.27H394.891V116.5H402.191V116.336C402.16 115.773 402.043 115.227 401.84 114.695C401.645 114.164 401.332 113.727 400.902 113.383C400.473 113.039 399.887 112.867 399.145 112.867C398.652 112.867 398.199 112.973 397.785 113.184C397.371 113.387 397.016 113.691 396.719 114.098C396.422 114.504 396.191 115 396.027 115.586C395.863 116.172 395.781 116.848 395.781 117.613V118.105C395.781 118.707 395.863 119.273 396.027 119.805C396.199 120.328 396.445 120.789 396.766 121.188C397.094 121.586 397.488 121.898 397.949 122.125C398.418 122.352 398.949 122.465 399.543 122.465C400.309 122.465 400.957 122.309 401.488 121.996C402.02 121.684 402.484 121.266 402.883 120.742L404.195 121.785C403.922 122.199 403.574 122.594 403.152 122.969C402.73 123.344 402.211 123.648 401.594 123.883C400.984 124.117 400.262 124.234 399.426 124.234Z" fill="#BDBFD7"/>
</svg>