<svg id="svg" version="1.1" xmlns="http://www.w3.org/2000/svg" xmlns:xlink="http://www.w3.org/1999/xlink" width="100" height="20" viewBox="0, 0, 400,250"><g id="svgg"><path id="path0" d="M199.121 0.628 C 199.121 0.861,198.885 1.004,198.498 1.004 C 198.043 1.004,197.833 1.174,197.718 1.632 C 197.631 1.977,197.459 2.260,197.336 2.260 C 197.209 2.260,197.112 6.485,197.112 12.053 C 197.112 17.926,197.206 21.846,197.346 21.846 C 197.474 21.846,197.616 22.100,197.660 22.411 C 197.717 22.815,197.936 22.998,198.431 23.055 C 198.826 23.100,199.121 23.288,199.121 23.494 C 199.121 23.738,199.404 23.854,200.000 23.854 C 200.614 23.854,200.879 23.741,200.879 23.478 C 200.879 23.241,201.118 23.101,201.525 23.101 C 202.906 23.101,202.888 23.250,202.888 12.071 C 202.888 5.363,202.800 1.758,202.637 1.758 C 202.498 1.758,202.385 1.588,202.385 1.381 C 202.385 1.174,202.228 1.004,202.036 1.004 C 201.843 1.004,201.621 0.835,201.541 0.628 C 201.442 0.370,201.039 0.251,200.259 0.251 C 199.415 0.251,199.121 0.348,199.121 0.628 M129.504 13.281 C 128.899 13.895,128.843 18.581,129.441 18.581 C 129.713 18.581,129.818 18.860,129.818 19.586 C 129.818 20.138,129.931 20.590,130.069 20.590 C 130.207 20.590,130.320 20.873,130.320 21.218 C 130.320 21.608,130.462 21.846,130.697 21.846 C 130.961 21.846,131.073 22.113,131.073 22.742 C 131.073 23.236,131.243 23.809,131.450 24.016 C 131.657 24.223,131.827 24.723,131.827 25.128 C 131.827 25.532,131.940 25.863,132.078 25.863 C 132.216 25.863,132.329 26.262,132.329 26.750 C 132.329 27.306,132.469 27.690,132.706 27.781 C 132.913 27.861,133.082 28.196,133.082 28.527 C 133.082 28.857,133.195 29.127,133.333 29.127 C 133.471 29.127,133.584 29.526,133.584 30.014 C 133.584 30.571,133.725 30.955,133.961 31.045 C 134.189 31.133,134.338 31.512,134.338 32.007 C 134.338 32.585,134.521 32.961,134.965 33.295 C 135.311 33.554,135.593 33.909,135.593 34.083 C 135.593 34.312,136.152 34.401,137.602 34.401 C 139.052 34.401,139.611 34.312,139.611 34.083 C 139.611 33.909,139.893 33.554,140.239 33.295 C 140.992 32.729,141.194 30.383,140.490 30.383 C 140.218 30.383,140.113 30.104,140.113 29.379 C 140.113 28.826,140.000 28.374,139.862 28.374 C 139.724 28.374,139.611 27.979,139.611 27.495 C 139.611 26.881,139.497 26.616,139.234 26.616 C 138.983 26.616,138.858 26.365,138.858 25.863 C 138.858 25.449,138.745 25.110,138.606 25.110 C 138.468 25.110,138.355 24.726,138.355 24.258 C 138.355 23.732,138.211 23.351,137.979 23.261 C 137.742 23.171,137.602 22.787,137.602 22.230 C 137.602 21.609,137.489 21.343,137.225 21.343 C 136.953 21.343,136.849 21.064,136.849 20.339 C 136.849 19.787,136.736 19.335,136.598 19.335 C 136.460 19.335,136.347 19.052,136.347 18.707 C 136.347 18.316,136.204 18.079,135.970 18.079 C 135.698 18.079,135.593 17.800,135.593 17.075 C 135.593 16.522,135.480 16.070,135.342 16.070 C 135.204 16.070,135.091 15.671,135.091 15.184 C 135.091 14.627,134.951 14.243,134.714 14.152 C 134.507 14.073,134.338 13.850,134.338 13.658 C 134.338 13.466,134.168 13.308,133.961 13.308 C 133.754 13.308,133.584 13.195,133.584 13.057 C 133.584 12.585,129.997 12.782,129.504 13.281 M266.729 13.182 C 266.557 13.378,266.416 13.656,266.416 13.800 C 266.416 13.944,266.246 14.062,266.039 14.062 C 265.805 14.062,265.662 14.299,265.662 14.689 C 265.662 15.035,265.564 15.317,265.443 15.317 C 265.323 15.317,265.152 15.769,265.064 16.321 C 264.975 16.874,264.791 17.326,264.655 17.326 C 264.518 17.326,264.407 17.778,264.407 18.330 C 264.407 19.056,264.302 19.335,264.030 19.335 C 263.796 19.335,263.653 19.572,263.653 19.962 C 263.653 20.308,263.540 20.590,263.402 20.590 C 263.264 20.590,263.151 21.042,263.151 21.594 C 263.151 22.320,263.047 22.599,262.775 22.599 C 262.503 22.599,262.398 22.878,262.398 23.603 C 262.398 24.156,262.290 24.608,262.158 24.608 C 262.026 24.608,261.844 25.004,261.753 25.489 C 261.662 25.974,261.488 26.433,261.365 26.508 C 261.243 26.584,261.142 26.910,261.142 27.232 C 261.142 27.554,260.973 27.883,260.766 27.963 C 260.529 28.053,260.389 28.437,260.389 28.994 C 260.389 29.482,260.276 29.881,260.138 29.881 C 259.996 29.881,259.887 30.592,259.887 31.513 C 259.887 32.411,259.992 33.145,260.121 33.145 C 260.249 33.145,260.390 33.399,260.435 33.710 C 260.538 34.440,264.909 34.756,264.909 34.034 C 264.909 33.821,265.078 33.647,265.286 33.647 C 265.520 33.647,265.662 33.410,265.662 33.019 C 265.662 32.629,265.805 32.392,266.039 32.392 C 266.311 32.392,266.416 32.113,266.416 31.387 C 266.416 30.835,266.529 30.383,266.667 30.383 C 266.805 30.383,266.918 30.113,266.918 29.782 C 266.918 29.452,267.087 29.116,267.294 29.037 C 267.528 28.947,267.671 28.565,267.671 28.032 C 267.671 27.500,267.814 27.117,268.048 27.028 C 268.284 26.937,268.424 26.553,268.424 25.997 C 268.424 25.509,268.537 25.110,268.675 25.110 C 268.814 25.110,268.927 24.658,268.927 24.105 C 268.927 23.380,269.031 23.101,269.303 23.101 C 269.538 23.101,269.680 22.864,269.680 22.473 C 269.680 22.128,269.793 21.846,269.931 21.846 C 270.069 21.846,270.182 21.394,270.182 20.841 C 270.182 20.116,270.287 19.837,270.559 19.837 C 270.819 19.837,270.935 19.575,270.935 18.985 C 270.935 18.459,271.080 18.077,271.312 17.988 C 271.873 17.773,271.833 14.509,271.258 13.535 C 270.757 12.687,267.396 12.424,266.729 13.182 M69.492 47.807 C 69.250 47.991,69.052 48.439,69.052 48.804 C 69.052 49.225,68.915 49.466,68.675 49.466 C 68.412 49.466,68.299 49.731,68.299 50.345 C 68.299 50.959,68.412 51.224,68.675 51.224 C 68.913 51.224,69.052 51.463,69.052 51.870 C 69.052 52.532,69.559 53.233,70.039 53.233 C 70.187 53.233,70.308 53.474,70.308 53.769 C 70.308 54.064,70.590 54.567,70.935 54.887 C 71.281 55.207,71.563 55.587,71.563 55.732 C 71.563 55.877,71.684 55.995,71.832 55.995 C 72.180 55.995,72.819 56.634,72.819 56.981 C 72.819 57.129,72.988 57.250,73.195 57.250 C 73.402 57.250,73.572 57.473,73.572 57.744 C 73.572 58.261,74.873 59.761,75.321 59.761 C 75.464 59.761,75.581 59.883,75.581 60.030 C 75.581 60.378,76.219 61.017,76.567 61.017 C 76.715 61.017,76.836 61.284,76.836 61.610 C 76.836 61.948,77.105 62.404,77.464 62.674 C 77.809 62.933,78.092 63.288,78.092 63.462 C 78.092 63.636,78.261 63.779,78.468 63.779 C 78.675 63.779,78.845 63.900,78.845 64.048 C 78.845 64.396,79.484 65.035,79.831 65.035 C 79.979 65.035,80.100 65.163,80.100 65.321 C 80.100 66.302,83.855 66.725,84.868 65.858 C 85.530 65.291,85.643 61.268,84.997 61.268 C 84.790 61.268,84.620 61.099,84.620 60.891 C 84.620 60.684,84.451 60.515,84.244 60.515 C 84.036 60.515,83.867 60.394,83.867 60.246 C 83.867 59.898,83.228 59.259,82.880 59.259 C 82.732 59.259,82.611 58.977,82.611 58.632 C 82.611 58.286,82.498 58.004,82.360 58.004 C 82.222 58.004,82.109 57.834,82.109 57.627 C 82.109 57.420,81.940 57.250,81.733 57.250 C 81.525 57.250,81.356 57.081,81.356 56.874 C 81.356 56.667,81.235 56.497,81.087 56.497 C 80.739 56.497,80.100 55.858,80.100 55.511 C 80.100 55.363,79.931 55.242,79.724 55.242 C 79.517 55.242,79.347 55.020,79.347 54.748 C 79.347 54.231,78.046 52.731,77.598 52.731 C 77.455 52.731,77.338 52.602,77.338 52.446 C 77.338 52.289,77.056 51.899,76.711 51.579 C 76.365 51.259,76.083 50.830,76.083 50.627 C 76.083 50.423,75.800 50.034,75.455 49.762 C 75.110 49.491,74.827 49.144,74.827 48.991 C 74.827 48.838,74.658 48.713,74.451 48.713 C 74.244 48.713,74.074 48.592,74.074 48.444 C 74.074 47.493,70.551 47.003,69.492 47.807 M327.181 47.709 C 327.181 47.847,327.012 47.960,326.805 47.960 C 326.598 47.960,326.428 48.129,326.428 48.336 C 326.428 48.544,326.315 48.713,326.177 48.713 C 326.039 48.713,325.926 48.883,325.926 49.090 C 325.926 49.297,325.804 49.466,325.656 49.466 C 325.182 49.466,323.917 50.914,323.917 51.456 C 323.917 51.752,323.754 51.977,323.540 51.977 C 323.333 51.977,323.164 52.098,323.164 52.246 C 323.164 52.594,322.525 53.233,322.177 53.233 C 322.029 53.233,321.908 53.402,321.908 53.610 C 321.908 53.817,321.739 53.986,321.532 53.986 C 321.325 53.986,321.155 54.156,321.155 54.363 C 321.155 54.570,321.042 54.739,320.904 54.739 C 320.766 54.739,320.653 55.022,320.653 55.367 C 320.653 55.712,320.532 55.995,320.384 55.995 C 320.036 55.995,319.397 56.634,319.397 56.981 C 319.397 57.129,319.228 57.250,319.021 57.250 C 318.814 57.250,318.644 57.420,318.644 57.627 C 318.644 57.834,318.523 58.004,318.375 58.004 C 318.027 58.004,317.389 58.643,317.389 58.990 C 317.389 59.138,317.219 59.259,317.012 59.259 C 316.778 59.259,316.635 59.496,316.635 59.887 C 316.635 60.232,316.522 60.515,316.384 60.515 C 316.246 60.515,316.133 60.684,316.133 60.891 C 316.133 61.099,315.964 61.268,315.756 61.268 C 315.522 61.268,315.380 61.505,315.380 61.896 C 315.380 62.286,315.237 62.524,315.003 62.524 C 314.739 62.524,314.626 62.789,314.626 63.410 C 314.626 63.967,314.767 64.351,315.003 64.442 C 315.210 64.521,315.380 64.856,315.380 65.187 C 315.380 65.554,315.527 65.788,315.756 65.788 C 315.964 65.788,316.133 65.901,316.133 66.039 C 316.133 66.184,316.928 66.290,318.016 66.290 C 319.104 66.290,319.900 66.184,319.900 66.039 C 319.900 65.901,320.069 65.788,320.276 65.788 C 320.483 65.788,320.653 65.667,320.653 65.520 C 320.653 65.372,321.033 64.892,321.497 64.453 C 321.961 64.013,322.420 63.399,322.518 63.089 C 322.616 62.778,322.801 62.524,322.930 62.524 C 323.058 62.524,323.164 62.354,323.164 62.147 C 323.164 61.940,323.333 61.770,323.540 61.770 C 323.748 61.770,323.917 61.649,323.917 61.501 C 323.917 61.154,324.556 60.515,324.904 60.515 C 325.052 60.515,325.173 60.345,325.173 60.138 C 325.173 59.931,325.283 59.761,325.419 59.761 C 325.554 59.761,325.736 59.479,325.823 59.134 C 325.909 58.788,326.081 58.506,326.204 58.506 C 326.327 58.506,326.428 58.336,326.428 58.129 C 326.428 57.922,326.549 57.753,326.697 57.753 C 327.045 57.753,327.684 57.114,327.684 56.766 C 327.684 56.618,327.834 56.497,328.018 56.497 C 328.202 56.497,328.503 56.215,328.688 55.869 C 328.873 55.524,329.174 55.242,329.358 55.242 C 329.547 55.242,329.692 54.969,329.692 54.614 C 329.692 54.223,329.835 53.986,330.069 53.986 C 330.276 53.986,330.446 53.844,330.446 53.669 C 330.446 53.495,330.728 53.140,331.073 52.881 C 331.655 52.444,331.701 52.256,331.701 50.315 C 331.701 48.290,331.680 48.215,331.073 48.063 C 330.728 47.976,330.446 47.805,330.446 47.682 C 330.446 47.558,329.711 47.458,328.814 47.458 C 327.893 47.458,327.181 47.567,327.181 47.709 M153.923 69.931 C 153.923 70.203,153.644 70.308,152.919 70.308 C 152.015 70.308,151.915 70.370,151.915 70.935 C 151.915 71.281,151.802 71.563,151.664 71.563 C 151.497 71.563,151.412 82.151,151.412 102.825 C 151.412 136.566,151.465 135.091,150.265 135.091 C 150.018 135.091,149.404 135.795,149.404 136.077 C 149.404 136.225,149.121 136.347,148.776 136.347 C 148.385 136.347,148.148 136.489,148.148 136.723 C 148.148 136.930,147.979 137.100,147.772 137.100 C 147.564 137.100,147.395 137.213,147.395 137.351 C 147.395 137.489,147.112 137.602,146.767 137.602 C 146.377 137.602,146.139 137.744,146.139 137.979 C 146.139 138.186,146.018 138.355,145.870 138.355 C 145.523 138.355,144.884 138.994,144.884 139.342 C 144.884 139.490,144.617 139.611,144.291 139.611 C 143.952 139.611,143.497 139.879,143.227 140.239 C 142.968 140.584,142.501 140.866,142.188 140.866 C 141.850 140.866,141.620 141.019,141.620 141.243 C 141.620 141.450,141.491 141.620,141.335 141.620 C 141.178 141.620,140.788 141.902,140.468 142.247 C 140.148 142.593,139.654 142.875,139.372 142.875 C 139.089 142.875,138.858 142.996,138.858 143.144 C 138.858 143.558,138.190 144.131,137.707 144.131 C 137.468 144.131,136.843 144.583,136.318 145.135 C 135.792 145.687,135.132 146.139,134.850 146.139 C 134.562 146.139,134.338 146.304,134.338 146.516 C 134.338 146.723,134.217 146.893,134.069 146.893 C 133.721 146.893,133.082 147.531,133.082 147.879 C 133.082 148.027,132.841 148.148,132.546 148.148 C 132.251 148.148,131.748 148.431,131.428 148.776 C 131.108 149.121,130.615 149.404,130.332 149.404 C 130.042 149.404,129.818 149.568,129.818 149.780 C 129.818 149.987,129.696 150.157,129.548 150.157 C 129.196 150.157,127.809 151.544,127.809 151.895 C 127.809 152.044,127.640 152.166,127.433 152.166 C 127.099 152.166,127.056 156.937,127.056 193.597 C 127.056 221.050,126.971 235.028,126.805 235.028 C 126.667 235.028,126.554 235.198,126.554 235.405 C 126.554 235.612,126.384 235.782,126.177 235.782 C 125.970 235.782,125.800 235.903,125.800 236.051 C 125.800 236.199,125.631 236.489,125.424 236.696 C 124.900 237.220,124.900 239.548,125.424 239.548 C 125.657 239.548,125.800 239.785,125.800 240.171 C 125.800 240.626,125.970 240.836,126.428 240.952 C 126.773 241.038,127.056 241.210,127.056 241.333 C 127.056 241.456,127.342 241.557,127.691 241.557 C 128.041 241.557,128.392 241.726,128.472 241.933 C 128.551 242.141,128.887 242.310,129.217 242.310 C 129.548 242.310,129.818 242.423,129.818 242.561 C 129.818 242.699,130.270 242.812,130.822 242.812 C 131.548 242.812,131.827 242.917,131.827 243.189 C 131.827 243.450,132.089 243.566,132.679 243.566 C 133.204 243.566,133.586 243.710,133.675 243.942 C 133.777 244.208,134.192 244.319,135.083 244.319 C 135.778 244.319,136.347 244.432,136.347 244.570 C 136.347 244.708,136.911 244.821,137.602 244.821 C 138.551 244.821,138.858 244.913,138.858 245.198 C 138.858 245.494,139.206 245.574,140.490 245.574 C 141.410 245.574,142.122 245.684,142.122 245.825 C 142.122 245.972,142.959 246.077,144.131 246.077 C 145.749 246.077,146.139 246.150,146.139 246.453 C 146.139 246.760,146.558 246.830,148.399 246.830 C 150.241 246.830,150.659 246.900,150.659 247.207 C 150.659 247.513,151.078 247.583,152.919 247.583 C 154.258 247.583,155.179 247.685,155.179 247.834 C 155.179 247.988,156.351 248.085,158.192 248.085 C 160.703 248.085,161.205 248.148,161.205 248.462 C 161.205 248.779,161.763 248.839,164.721 248.839 C 166.897 248.839,168.236 248.934,168.236 249.090 C 168.236 249.248,169.952 249.341,172.881 249.341 C 176.843 249.341,177.527 249.396,177.527 249.718 C 177.527 250.042,178.350 250.094,183.427 250.094 C 188.183 250.094,189.328 250.159,189.328 250.430 C 189.328 251.202,255.498 251.202,255.795 250.429 C 255.897 250.163,257.130 250.094,261.797 250.094 C 266.851 250.094,267.671 250.042,267.671 249.718 C 267.671 249.397,268.313 249.341,271.940 249.341 C 274.618 249.341,276.208 249.247,276.208 249.090 C 276.208 248.934,277.548 248.839,279.724 248.839 C 282.681 248.839,283.239 248.779,283.239 248.462 C 283.239 248.148,283.741 248.085,286.252 248.085 C 288.094 248.085,289.266 247.988,289.266 247.834 C 289.266 247.685,290.218 247.583,291.620 247.583 C 293.407 247.583,294.050 247.492,294.288 247.207 C 294.514 246.934,295.112 246.830,296.453 246.830 C 297.932 246.830,298.305 246.754,298.305 246.453 C 298.305 246.150,298.696 246.077,300.314 246.077 C 301.486 246.077,302.323 245.972,302.323 245.825 C 302.323 245.684,303.034 245.574,303.955 245.574 C 305.238 245.574,305.587 245.494,305.587 245.198 C 305.587 244.902,305.936 244.821,307.219 244.821 C 308.140 244.821,308.851 244.712,308.851 244.570 C 308.851 244.432,309.250 244.319,309.738 244.319 C 310.295 244.319,310.678 244.179,310.769 243.942 C 310.870 243.678,311.282 243.566,312.142 243.566 C 313.067 243.566,313.371 243.472,313.371 243.189 C 313.371 242.955,313.608 242.812,313.999 242.812 C 314.344 242.812,314.626 242.699,314.626 242.561 C 314.626 242.423,315.078 242.310,315.631 242.310 C 316.356 242.310,316.635 242.205,316.635 241.933 C 316.635 241.726,316.805 241.557,317.012 241.557 C 317.219 241.557,317.389 241.444,317.389 241.306 C 317.389 241.168,317.583 241.055,317.820 241.055 C 318.057 241.055,318.509 240.755,318.824 240.388 C 319.945 239.084,319.454 235.782,318.139 235.782 C 318.002 235.782,317.891 235.612,317.891 235.405 C 317.891 235.171,317.654 235.028,317.263 235.028 C 316.918 235.028,316.635 234.915,316.635 234.777 C 316.635 234.639,316.353 234.526,316.008 234.526 C 315.617 234.526,315.380 234.384,315.380 234.149 C 315.380 233.936,315.155 233.773,314.860 233.773 C 314.574 233.773,314.170 233.603,313.963 233.396 C 313.756 233.189,313.255 233.019,312.851 233.019 C 312.446 233.019,312.116 232.906,312.116 232.768 C 312.116 232.630,311.494 232.517,310.734 232.517 C 309.674 232.517,309.353 232.430,309.353 232.141 C 309.353 231.856,309.047 231.764,308.098 231.764 C 307.407 231.764,306.842 231.651,306.842 231.513 C 306.842 231.371,306.131 231.262,305.210 231.262 C 303.927 231.262,303.578 231.181,303.578 230.885 C 303.578 230.582,303.188 230.508,301.569 230.508 C 299.951 230.508,299.561 230.435,299.561 230.132 C 299.561 229.831,299.184 229.755,297.677 229.755 C 296.589 229.755,295.794 229.649,295.794 229.504 C 295.794 229.355,294.871 229.253,293.526 229.253 C 291.742 229.253,291.228 229.173,291.114 228.876 C 290.997 228.572,290.420 228.500,288.109 228.500 C 286.369 228.500,285.248 228.401,285.248 228.249 C 285.248 228.094,283.992 227.997,281.984 227.997 C 279.249 227.997,278.719 227.936,278.719 227.621 C 278.719 227.308,278.231 227.244,275.832 227.244 L 272.944 227.244 272.944 189.328 C 272.944 155.793,272.901 151.412,272.567 151.412 C 272.360 151.412,272.191 151.284,272.191 151.126 C 272.191 150.704,271.395 150.174,270.747 150.165 C 270.436 150.161,270.182 150.040,270.182 149.897 C 270.182 149.449,268.681 148.148,268.165 148.148 C 267.893 148.148,267.671 147.979,267.671 147.772 C 267.671 147.564,267.502 147.395,267.294 147.395 C 267.087 147.395,266.918 147.282,266.918 147.144 C 266.918 147.006,266.635 146.893,266.290 146.893 C 265.899 146.893,265.662 146.750,265.662 146.516 C 265.662 146.309,265.493 146.139,265.286 146.139 C 265.078 146.139,264.909 146.018,264.909 145.870 C 264.909 145.427,264.227 144.884,263.671 144.884 C 263.376 144.884,263.151 144.721,263.151 144.507 C 263.151 144.300,262.982 144.131,262.775 144.131 C 262.567 144.131,262.398 144.018,262.398 143.879 C 262.398 143.741,262.116 143.628,261.770 143.628 C 261.380 143.628,261.142 143.486,261.142 143.252 C 261.142 143.045,260.973 142.875,260.766 142.875 C 260.559 142.875,260.389 142.746,260.389 142.589 C 260.389 142.167,259.593 141.637,258.945 141.628 C 258.635 141.623,258.380 141.499,258.380 141.351 C 258.380 141.003,257.742 140.364,257.394 140.364 C 257.246 140.364,257.125 140.195,257.125 139.987 C 257.125 139.753,256.888 139.611,256.497 139.611 C 256.107 139.611,255.869 139.469,255.869 139.234 C 255.869 139.027,255.700 138.858,255.493 138.858 C 255.286 138.858,255.116 138.745,255.116 138.606 C 255.116 138.468,254.834 138.355,254.488 138.355 C 254.143 138.355,253.861 138.234,253.861 138.086 C 253.861 137.739,253.222 137.100,252.874 137.100 C 252.726 137.100,252.605 136.930,252.605 136.723 C 252.605 136.489,252.368 136.347,251.977 136.347 C 251.587 136.347,251.350 136.204,251.350 135.970 C 251.350 135.763,251.180 135.593,250.973 135.593 C 250.766 135.593,250.596 135.480,250.596 135.342 C 250.596 135.204,250.314 135.091,249.969 135.091 L 249.341 135.091 249.341 113.380 C 249.341 88.310,249.736 91.149,246.246 91.149 C 244.540 91.149,244.091 91.227,243.969 91.546 C 243.885 91.764,243.815 109.363,243.813 130.655 C 243.811 151.946,243.726 169.496,243.625 169.656 C 243.383 170.036,238.585 173.509,238.302 173.509 C 238.182 173.509,238.046 173.600,238.000 173.711 C 237.880 174.002,234.074 176.773,233.796 176.773 C 233.668 176.773,233.526 176.870,233.480 176.988 C 233.434 177.106,232.492 177.838,231.387 178.616 C 230.282 179.393,229.252 180.135,229.097 180.264 C 228.942 180.394,227.925 181.130,226.837 181.900 C 225.749 182.670,224.633 183.482,224.357 183.703 C 224.080 183.924,223.402 184.404,222.850 184.771 C 222.298 185.137,221.564 185.691,221.220 186.001 C 220.877 186.312,220.453 186.566,220.279 186.566 C 220.105 186.566,219.962 186.651,219.962 186.755 C 219.962 186.858,219.370 187.338,218.646 187.822 C 217.923 188.305,217.104 188.906,216.826 189.157 C 216.549 189.407,215.926 189.856,215.443 190.153 C 214.959 190.450,214.346 190.893,214.080 191.138 C 213.814 191.382,213.390 191.648,213.138 191.728 C 212.887 191.808,212.680 191.979,212.680 192.107 C 212.680 192.236,212.511 192.341,212.304 192.341 C 212.097 192.341,211.927 192.432,211.927 192.542 C 211.927 192.652,211.478 193.020,210.930 193.358 C 210.381 193.697,209.929 194.058,209.925 194.162 C 209.921 194.266,209.800 194.350,209.656 194.350 C 209.512 194.350,209.090 194.633,208.717 194.978 C 208.345 195.323,207.912 195.606,207.755 195.606 C 207.597 195.606,207.315 195.791,207.128 196.017 C 206.940 196.243,206.390 196.690,205.905 197.011 C 204.096 198.206,202.005 199.679,201.883 199.842 C 201.136 200.850,198.619 200.873,198.619 199.871 C 198.619 199.795,198.252 199.515,197.803 199.251 C 197.354 198.986,196.761 198.559,196.485 198.301 C 196.208 198.043,195.587 197.590,195.104 197.293 C 194.620 196.997,194.065 196.599,193.871 196.409 C 193.676 196.219,193.063 195.777,192.509 195.428 C 191.955 195.078,191.274 194.579,190.996 194.320 C 190.717 194.060,190.405 193.848,190.303 193.848 C 190.201 193.848,189.968 193.703,189.786 193.525 C 189.603 193.348,188.892 192.811,188.204 192.333 C 187.517 191.854,186.733 191.265,186.462 191.023 C 186.191 190.782,185.891 190.584,185.796 190.584 C 185.647 190.584,183.281 188.854,182.371 188.080 C 182.204 187.938,181.998 187.822,181.914 187.822 C 181.829 187.822,181.602 187.680,181.409 187.508 C 180.584 186.768,180.296 186.566,180.061 186.566 C 179.924 186.566,179.721 186.413,179.611 186.226 C 179.500 186.039,178.901 185.570,178.280 185.184 C 177.659 184.798,177.094 184.414,177.024 184.329 C 176.955 184.245,176.476 183.895,175.959 183.551 C 175.442 183.207,175.018 182.841,175.017 182.737 C 175.016 182.633,174.846 182.549,174.639 182.549 C 174.432 182.549,174.262 182.443,174.262 182.314 C 174.262 182.186,174.056 182.015,173.804 181.935 C 173.553 181.855,173.126 181.593,172.857 181.353 C 172.588 181.113,171.805 180.524,171.118 180.045 C 170.430 179.566,169.755 179.084,169.617 178.973 C 169.479 178.863,167.841 177.681,165.976 176.347 C 164.112 175.012,162.437 173.771,162.255 173.589 C 162.072 173.407,161.839 173.258,161.737 173.258 C 161.635 173.258,161.330 173.060,161.060 172.819 C 160.790 172.577,159.896 171.927,159.073 171.375 C 158.250 170.822,157.376 170.173,157.131 169.931 C 156.653 169.460,156.417 76.141,156.892 75.393 C 157.049 75.146,164.576 75.067,192.607 75.017 L 228.123 74.953 228.195 72.923 C 228.235 71.806,228.153 70.591,228.013 70.223 L 227.759 69.554 190.841 69.554 C 158.193 69.554,153.923 69.598,153.923 69.931 M168.461 88.458 C 166.889 89.514,167.141 91.543,168.937 92.293 C 170.249 92.841,180.888 92.813,182.275 92.258 C 183.997 91.569,184.244 89.303,182.700 88.362 C 181.390 87.563,169.676 87.642,168.461 88.458 M25.863 100.691 C 25.863 100.829,25.581 100.942,25.235 100.942 C 24.845 100.942,24.608 101.084,24.608 101.318 C 24.608 101.525,24.438 101.695,24.231 101.695 C 23.932 101.695,23.854 102.060,23.854 103.478 C 23.854 105.348,24.834 106.968,25.964 106.968 C 26.185 106.968,26.365 107.081,26.365 107.219 C 26.365 107.357,26.704 107.470,27.119 107.470 C 27.621 107.470,27.872 107.596,27.872 107.847 C 27.872 108.081,28.109 108.223,28.500 108.223 C 28.890 108.223,29.127 108.366,29.127 108.600 C 29.127 108.807,29.297 108.977,29.504 108.977 C 29.711 108.977,29.881 109.090,29.881 109.228 C 29.881 109.366,30.163 109.479,30.508 109.479 C 30.899 109.479,31.136 109.621,31.136 109.856 C 31.136 110.090,31.373 110.232,31.764 110.232 C 32.109 110.232,32.392 110.345,32.392 110.483 C 32.392 110.621,32.561 110.734,32.768 110.734 C 32.976 110.734,33.145 110.904,33.145 111.111 C 33.145 111.341,33.379 111.488,33.746 111.488 C 34.076 111.488,34.412 111.657,34.491 111.864 C 34.571 112.072,34.865 112.241,35.146 112.241 C 35.426 112.241,35.656 112.354,35.656 112.492 C 35.656 112.630,35.938 112.743,36.284 112.743 C 36.674 112.743,36.911 112.886,36.911 113.120 C 36.911 113.327,37.081 113.497,37.288 113.497 C 37.495 113.497,37.665 113.610,37.665 113.748 C 37.665 113.886,37.947 113.999,38.293 113.999 C 38.683 113.999,38.920 114.141,38.920 114.375 C 38.920 114.605,39.154 114.752,39.521 114.752 C 39.852 114.752,40.187 114.922,40.267 115.129 C 40.366 115.387,40.769 115.505,41.549 115.505 C 42.393 115.505,42.687 115.408,42.687 115.129 C 42.687 114.878,42.938 114.752,43.440 114.752 C 44.076 114.752,44.193 114.654,44.193 114.124 C 44.193 113.779,44.306 113.497,44.444 113.497 C 44.583 113.497,44.696 112.875,44.696 112.116 C 44.696 111.356,44.590 110.734,44.462 110.734 C 44.333 110.734,44.192 110.480,44.148 110.169 C 44.091 109.765,43.872 109.582,43.377 109.525 C 42.997 109.481,42.687 109.340,42.687 109.211 C 42.687 109.082,42.404 108.977,42.059 108.977 C 41.714 108.977,41.431 108.865,41.431 108.729 C 41.431 108.238,40.555 107.470,39.994 107.470 C 39.680 107.470,39.422 107.357,39.422 107.219 C 39.422 107.081,39.140 106.968,38.795 106.968 C 38.449 106.968,38.167 106.839,38.167 106.682 C 38.167 106.260,37.371 105.730,36.723 105.720 C 36.392 105.716,36.158 105.557,36.158 105.336 C 36.158 105.101,35.921 104.959,35.530 104.959 C 35.140 104.959,34.903 104.817,34.903 104.583 C 34.903 104.348,34.666 104.206,34.275 104.206 C 33.930 104.206,33.647 104.093,33.647 103.955 C 33.647 103.817,33.478 103.704,33.271 103.704 C 33.063 103.704,32.894 103.534,32.894 103.327 C 32.894 103.093,32.657 102.950,32.266 102.950 C 31.921 102.950,31.638 102.837,31.638 102.699 C 31.638 102.561,31.356 102.448,31.011 102.448 C 30.620 102.448,30.383 102.306,30.383 102.072 C 30.383 101.837,30.146 101.695,29.755 101.695 C 29.365 101.695,29.127 101.553,29.127 101.318 C 29.127 101.084,28.890 100.942,28.500 100.942 C 28.154 100.942,27.872 100.829,27.872 100.691 C 27.872 100.552,27.420 100.439,26.868 100.439 C 26.315 100.439,25.863 100.552,25.863 100.691 M372.881 100.691 C 372.881 100.829,372.560 100.942,372.166 100.942 C 371.429 100.942,370.370 101.662,370.370 102.164 C 370.370 102.320,370.031 102.448,369.617 102.448 C 369.203 102.448,368.864 102.561,368.864 102.699 C 368.864 102.837,368.581 102.950,368.236 102.950 C 367.845 102.950,367.608 103.093,367.608 103.327 C 367.608 103.544,367.381 103.704,367.072 103.704 C 366.777 103.704,366.274 103.986,365.954 104.331 C 365.634 104.677,365.141 104.959,364.858 104.959 C 364.569 104.959,364.344 105.124,364.344 105.336 C 364.344 105.570,364.107 105.712,363.716 105.712 C 363.371 105.712,363.089 105.825,363.089 105.964 C 363.089 106.102,362.806 106.215,362.461 106.215 C 362.070 106.215,361.833 106.357,361.833 106.591 C 361.833 106.798,361.664 106.968,361.456 106.968 C 361.249 106.968,361.080 107.081,361.080 107.219 C 361.080 107.357,360.797 107.470,360.452 107.470 C 360.061 107.470,359.824 107.612,359.824 107.847 C 359.824 108.081,359.587 108.223,359.196 108.223 C 358.806 108.223,358.569 108.366,358.569 108.600 C 358.569 108.807,358.399 108.977,358.192 108.977 C 357.985 108.977,357.815 109.090,357.815 109.228 C 357.815 109.366,357.533 109.479,357.188 109.479 C 356.797 109.479,356.560 109.621,356.560 109.856 C 356.560 110.063,356.390 110.232,356.183 110.232 C 355.882 110.232,355.807 110.609,355.807 112.116 C 355.807 113.622,355.882 113.999,356.183 113.999 C 356.390 113.999,356.560 114.168,356.560 114.375 C 356.560 114.583,356.717 114.752,356.910 114.752 C 357.102 114.752,357.325 114.922,357.404 115.129 C 357.506 115.395,357.921 115.505,358.820 115.505 C 359.718 115.505,360.133 115.395,360.236 115.129 C 360.315 114.922,360.635 114.752,360.946 114.752 C 361.257 114.752,361.724 114.470,361.983 114.124 C 362.246 113.774,362.709 113.497,363.030 113.497 C 363.347 113.497,363.672 113.327,363.751 113.120 C 363.830 112.913,364.166 112.743,364.496 112.743 C 364.827 112.743,365.097 112.643,365.097 112.519 C 365.097 112.396,365.380 112.225,365.725 112.138 C 366.070 112.051,366.353 111.870,366.353 111.734 C 366.353 111.599,366.522 111.488,366.729 111.488 C 366.937 111.488,367.106 111.318,367.106 111.111 C 367.106 110.877,367.343 110.734,367.734 110.734 C 368.079 110.734,368.362 110.621,368.362 110.483 C 368.362 110.345,368.591 110.232,368.872 110.232 C 369.152 110.232,369.447 110.063,369.526 109.856 C 369.606 109.648,369.828 109.479,370.021 109.479 C 370.213 109.479,370.370 109.366,370.370 109.228 C 370.370 109.090,370.600 108.977,370.880 108.977 C 371.161 108.977,371.456 108.807,371.535 108.600 C 371.615 108.393,371.950 108.223,372.280 108.223 C 372.647 108.223,372.881 108.077,372.881 107.847 C 372.881 107.612,373.119 107.470,373.509 107.470 C 373.854 107.470,374.137 107.357,374.137 107.219 C 374.137 107.081,374.306 106.968,374.513 106.968 C 374.721 106.968,374.890 106.798,374.890 106.591 C 374.890 106.357,375.127 106.215,375.518 106.215 C 376.013 106.215,376.146 106.087,376.146 105.614 C 376.146 105.283,376.315 104.948,376.522 104.868 C 377.017 104.678,377.037 102.803,376.546 102.523 C 376.353 102.413,376.155 102.040,376.107 101.695 C 376.034 101.170,375.866 101.054,375.078 100.989 C 374.561 100.946,374.137 100.805,374.137 100.675 C 374.137 100.546,373.854 100.439,373.509 100.439 C 373.164 100.439,372.881 100.552,372.881 100.691 M168.173 101.536 C 167.342 102.251,167.209 103.880,167.915 104.705 C 168.344 105.206,168.599 105.210,199.661 105.210 L 230.974 105.210 231.495 104.549 C 232.224 103.622,232.164 102.506,231.340 101.646 L 230.666 100.942 199.765 100.942 L 168.864 100.942 168.173 101.536 M168.144 119.541 C 167.103 120.360,167.192 122.038,168.323 122.900 L 169.162 123.540 199.654 123.540 C 232.583 123.540,230.659 123.613,231.701 122.326 C 232.238 121.662,232.080 120.364,231.376 119.660 L 230.737 119.021 199.771 119.021 C 168.825 119.021,168.806 119.021,168.144 119.541 M174.513 137.344 C 172.583 138.075,172.407 138.166,171.377 138.962 C 169.972 140.047,169.371 140.783,168.592 142.373 C 168.220 143.132,167.818 143.950,167.699 144.190 C 167.408 144.777,167.423 149.299,167.718 149.846 C 167.847 150.086,168.246 150.911,168.603 151.679 C 169.434 153.465,171.185 155.176,173.258 156.232 L 174.890 157.062 199.623 157.062 C 226.221 157.062,224.769 157.124,226.742 155.910 C 226.949 155.782,227.288 155.602,227.495 155.508 C 231.563 153.675,233.275 146.167,230.610 141.852 C 229.309 139.745,227.496 138.292,225.164 137.487 L 223.314 136.849 199.479 136.882 C 177.678 136.913,175.547 136.952,174.513 137.344 M251.651 143.189 C 254.480 145.200,264.323 152.287,265.238 152.971 C 265.806 153.396,265.453 153.859,263.541 155.192 C 261.799 156.406,258.226 159.001,256.834 160.062 C 256.191 160.553,255.593 160.954,255.505 160.954 C 255.417 160.954,255.041 161.237,254.668 161.582 C 254.296 161.927,253.877 162.212,253.738 162.214 C 253.598 162.217,253.033 162.613,252.482 163.093 C 251.931 163.574,251.412 163.967,251.329 163.967 C 251.245 163.967,250.848 164.258,250.447 164.614 C 248.279 166.535,248.345 166.891,248.340 153.275 C 248.337 143.283,248.402 141.117,248.704 141.117 C 248.722 141.117,250.048 142.050,251.651 143.189 M152.166 153.421 C 152.166 167.158,152.374 166.166,149.860 164.407 C 149.022 163.820,147.926 163.068,147.426 162.737 C 146.925 162.405,146.460 162.055,146.390 161.958 C 146.321 161.862,145.813 161.497,145.261 161.147 C 144.708 160.797,143.985 160.272,143.653 159.979 C 143.321 159.687,142.981 159.448,142.897 159.448 C 142.813 159.448,142.293 159.054,141.742 158.574 C 141.191 158.093,140.627 157.697,140.487 157.695 C 140.348 157.692,139.952 157.432,139.608 157.116 C 139.264 156.800,138.157 155.990,137.148 155.315 C 134.268 153.390,133.776 154.053,143.079 147.325 C 147.593 144.060,151.485 141.385,151.726 141.379 C 152.139 141.369,152.166 142.106,152.166 153.421 M224.643 142.422 C 228.026 144.622,228.127 149.053,224.849 151.408 L 223.620 152.291 200.134 152.361 C 173.825 152.439,175.299 152.535,173.668 150.630 C 171.326 147.894,171.665 144.570,174.478 142.689 C 176.104 141.601,174.319 141.669,200.126 141.709 L 223.603 141.745 224.643 142.422 M134.626 159.344 C 135.365 159.840,136.008 160.348,136.054 160.474 C 136.100 160.600,136.253 160.703,136.394 160.703 C 136.672 160.703,138.678 162.210,138.816 162.522 C 138.862 162.626,139.032 162.712,139.195 162.712 C 139.357 162.712,139.795 162.994,140.167 163.340 C 140.540 163.685,140.898 163.967,140.963 163.967 C 141.182 163.967,152.290 172.066,152.375 172.287 C 152.421 172.407,152.562 172.505,152.689 172.505 C 152.815 172.505,154.925 173.954,157.376 175.725 C 159.827 177.496,165.279 181.436,169.492 184.480 C 173.704 187.524,181.726 193.300,187.320 197.315 C 192.913 201.331,197.844 204.905,198.277 205.258 C 198.863 205.736,199.355 205.901,200.199 205.901 C 201.469 205.901,198.997 207.606,225.929 188.150 C 232.870 183.136,238.661 179.033,238.798 179.033 C 238.934 179.033,239.047 178.949,239.048 178.845 C 239.048 178.741,239.472 178.375,239.989 178.031 C 240.506 177.687,240.986 177.341,241.055 177.263 C 241.124 177.184,242.649 176.079,244.444 174.808 C 246.240 173.536,247.935 172.317,248.211 172.099 C 248.487 171.881,249.165 171.402,249.718 171.036 C 250.270 170.670,250.925 170.187,251.174 169.963 C 251.423 169.739,252.438 169.005,253.430 168.331 C 254.422 167.657,255.462 166.901,255.740 166.650 C 256.018 166.399,256.642 165.951,257.125 165.654 C 257.608 165.356,258.223 164.912,258.491 164.666 C 258.758 164.420,259.051 164.218,259.142 164.218 C 259.233 164.218,259.635 163.932,260.036 163.581 C 260.438 163.230,261.161 162.696,261.645 162.393 C 262.128 162.090,262.693 161.703,262.900 161.532 C 263.281 161.219,264.309 160.473,265.913 159.347 C 266.397 159.008,267.018 158.694,267.294 158.650 C 267.895 158.553,268.239 234.972,267.641 235.692 C 267.248 236.166,133.355 236.205,132.881 235.731 C 132.552 235.402,132.420 158.938,132.747 158.611 C 133.028 158.330,133.233 158.410,134.626 159.344 M2.260 166.102 C 2.260 166.310,2.037 166.478,1.761 166.478 C 0.662 166.478,0.251 167.211,0.251 169.171 C 0.251 170.628,0.327 170.998,0.628 170.998 C 0.835 170.998,1.004 171.168,1.004 171.375 C 1.004 171.582,1.174 171.751,1.381 171.751 C 1.588 171.751,1.758 171.864,1.758 172.003 C 1.758 172.148,2.553 172.254,3.641 172.254 C 5.148 172.254,5.524 172.329,5.524 172.630 C 5.524 172.926,5.873 173.007,7.156 173.007 C 8.077 173.007,8.788 173.116,8.788 173.258 C 8.788 173.404,9.625 173.509,10.797 173.509 C 12.415 173.509,12.806 173.582,12.806 173.886 C 12.806 174.187,13.180 174.262,14.662 174.262 C 16.081 174.262,16.553 174.351,16.663 174.639 C 16.778 174.939,17.319 175.016,19.327 175.016 C 21.398 175.016,21.846 174.949,21.846 174.639 C 21.846 174.432,22.015 174.262,22.222 174.262 C 22.529 174.262,22.599 173.844,22.599 172.003 C 22.599 170.161,22.529 169.743,22.222 169.743 C 22.015 169.743,21.846 169.573,21.846 169.366 C 21.846 169.081,21.539 168.989,20.590 168.989 C 19.900 168.989,19.335 168.876,19.335 168.738 C 19.335 168.592,18.498 168.487,17.326 168.487 C 15.708 168.487,15.317 168.414,15.317 168.110 C 15.317 167.810,14.943 167.734,13.461 167.734 C 12.042 167.734,11.570 167.645,11.460 167.357 C 11.354 167.081,10.917 166.981,9.816 166.981 C 8.991 166.981,8.246 166.868,8.161 166.729 C 8.075 166.591,7.165 166.478,6.137 166.478 C 4.644 166.478,4.269 166.403,4.269 166.102 C 4.269 165.830,3.990 165.725,3.264 165.725 C 2.539 165.725,2.260 165.830,2.260 166.102 M396.485 166.102 C 396.485 166.405,396.094 166.478,394.476 166.478 C 393.304 166.478,392.467 166.583,392.467 166.729 C 392.467 166.874,391.681 166.981,390.611 166.981 C 389.192 166.981,388.720 167.069,388.610 167.357 C 388.503 167.635,388.064 167.734,386.943 167.734 C 385.821 167.734,385.382 167.833,385.276 168.110 C 385.166 168.398,384.694 168.487,383.275 168.487 C 382.205 168.487,381.419 168.593,381.419 168.738 C 381.419 168.876,380.899 168.989,380.264 168.989 C 378.488 168.989,377.401 170.172,377.401 172.103 C 377.401 173.185,377.488 173.509,377.778 173.509 C 377.985 173.509,378.154 173.621,378.154 173.757 C 378.154 174.936,383.412 175.752,383.839 174.639 C 383.949 174.351,384.422 174.262,385.848 174.262 C 387.273 174.262,387.746 174.174,387.856 173.886 C 387.964 173.605,388.411 173.509,389.606 173.509 C 390.509 173.509,391.212 173.399,391.212 173.258 C 391.212 173.113,392.007 173.007,393.095 173.007 C 394.601 173.007,394.978 172.932,394.978 172.630 C 394.978 172.334,395.327 172.254,396.610 172.254 C 397.531 172.254,398.242 172.144,398.242 172.003 C 398.242 171.864,398.521 171.751,398.861 171.751 C 399.720 171.751,400.000 171.081,400.000 169.026 C 400.000 166.795,399.872 166.478,398.969 166.478 C 398.490 166.478,398.242 166.350,398.242 166.102 C 398.242 165.839,397.977 165.725,397.363 165.725 C 396.750 165.725,396.485 165.839,396.485 166.102 M203.298 169.259 C 202.788 169.660,202.637 170.001,202.637 170.745 C 202.637 173.352,202.084 173.258,217.412 173.258 L 230.455 173.258 231.235 172.530 C 232.406 171.436,232.059 169.262,230.653 168.885 C 228.875 168.408,203.947 168.748,203.298 169.259 " stroke="none" fill="#442584" fill-rule="evenodd"></path><path id="path1" d="M243.223 54.867 C 242.827 55.073,242.008 55.242,241.403 55.242 C 240.591 55.242,240.301 55.341,240.301 55.618 C 240.301 55.890,240.022 55.995,239.297 55.995 C 238.745 55.995,238.293 56.108,238.293 56.246 C 238.293 56.384,238.010 56.497,237.665 56.497 C 237.274 56.497,237.037 56.639,237.037 56.874 C 237.037 57.081,236.838 57.250,236.595 57.250 C 236.352 57.250,235.848 57.533,235.476 57.878 C 235.104 58.223,234.681 58.506,234.537 58.506 C 234.393 58.506,234.275 58.675,234.275 58.883 C 234.275 59.090,234.058 59.259,233.792 59.259 C 233.167 59.259,231.764 60.662,231.764 61.287 C 231.764 61.553,231.594 61.770,231.387 61.770 C 231.180 61.770,231.011 61.940,231.011 62.147 C 231.011 62.354,230.898 62.524,230.760 62.524 C 230.621 62.524,230.508 62.806,230.508 63.151 C 230.508 63.542,230.366 63.779,230.132 63.779 C 229.925 63.779,229.755 63.936,229.755 64.129 C 229.755 64.321,229.586 64.544,229.379 64.623 C 229.158 64.708,229.002 65.084,229.002 65.529 C 229.002 65.947,228.889 66.290,228.751 66.290 C 228.613 66.290,228.500 66.701,228.500 67.204 C 228.500 67.778,228.339 68.235,228.069 68.433 C 227.681 68.716,227.671 68.877,227.965 70.025 C 228.145 70.727,228.264 72.180,228.230 73.253 C 228.195 74.326,228.311 75.712,228.486 76.334 C 229.441 79.710,229.655 80.334,230.258 81.509 C 232.669 86.208,239.073 90.898,243.080 90.898 C 243.333 90.898,243.656 91.095,243.797 91.337 C 243.939 91.581,244.056 91.637,244.060 91.463 C 244.072 90.970,248.314 91.036,249.034 91.540 C 249.593 91.931,250.230 91.823,249.958 91.383 C 249.876 91.250,250.358 91.149,251.069 91.149 C 251.759 91.149,252.394 91.036,252.480 90.898 C 252.565 90.760,252.911 90.647,253.248 90.647 C 253.625 90.647,253.861 90.502,253.861 90.270 C 253.861 90.036,254.098 89.893,254.488 89.893 C 254.879 89.893,255.116 89.751,255.116 89.517 C 255.116 89.282,255.353 89.140,255.744 89.140 C 256.089 89.140,256.372 89.027,256.372 88.889 C 256.372 88.751,256.541 88.638,256.748 88.638 C 256.955 88.638,257.125 88.468,257.125 88.261 C 257.125 88.027,257.362 87.884,257.753 87.884 C 258.098 87.884,258.386 87.743,258.392 87.571 C 258.398 87.398,258.845 86.918,259.385 86.503 C 259.997 86.033,260.370 85.538,260.378 85.185 C 260.384 84.874,260.510 84.620,260.658 84.620 C 261.082 84.620,261.870 83.628,262.383 82.447 C 262.512 82.150,262.738 81.833,262.885 81.742 C 263.031 81.652,263.151 81.245,263.151 80.839 C 263.151 80.433,263.264 80.100,263.402 80.100 C 263.540 80.100,263.653 79.661,263.653 79.123 C 263.653 78.486,263.785 78.095,264.030 78.001 C 264.346 77.880,264.407 77.107,264.407 73.195 C 264.407 69.284,264.346 68.511,264.030 68.390 C 263.785 68.295,263.653 67.905,263.653 67.268 C 263.653 66.730,263.540 66.290,263.402 66.290 C 263.264 66.290,263.151 66.008,263.151 65.662 C 263.151 65.272,263.009 65.035,262.775 65.035 C 262.540 65.035,262.398 64.797,262.398 64.407 C 262.398 64.016,262.256 63.779,262.021 63.779 C 261.804 63.779,261.645 63.552,261.645 63.244 C 261.645 62.949,261.249 62.335,260.766 61.880 C 260.282 61.424,259.887 60.896,259.887 60.707 C 259.887 60.266,259.382 59.761,258.940 59.761 C 258.531 59.761,257.878 59.155,257.878 58.775 C 257.878 58.627,257.709 58.506,257.502 58.506 C 257.294 58.506,257.125 58.393,257.125 58.255 C 257.125 58.117,256.955 58.004,256.748 58.004 C 256.541 58.004,256.372 57.834,256.372 57.627 C 256.372 57.393,256.134 57.250,255.744 57.250 C 255.353 57.250,255.116 57.108,255.116 56.874 C 255.116 56.639,254.879 56.497,254.488 56.497 C 254.143 56.497,253.861 56.384,253.861 56.246 C 253.861 56.108,253.409 55.995,252.856 55.995 C 252.131 55.995,251.852 55.890,251.852 55.618 C 251.852 55.323,251.506 55.242,250.247 55.242 C 249.051 55.242,248.604 55.145,248.497 54.865 C 248.293 54.335,244.240 54.336,243.223 54.867 M250.094 60.769 C 259.394 63.853,262.349 75.803,255.462 82.479 C 253.599 84.286,251.067 85.876,250.053 85.876 C 249.816 85.876,249.552 85.989,249.466 86.127 C 249.207 86.546,243.610 86.430,242.310 85.978 C 237.301 84.239,234.120 80.681,233.051 75.624 C 232.474 72.894,232.844 70.522,234.351 67.294 C 235.666 64.478,239.264 61.502,242.310 60.711 C 242.793 60.585,243.528 60.381,243.942 60.257 C 245.114 59.907,248.292 60.171,250.094 60.769 M251.350 66.738 C 251.004 66.970,249.267 68.606,247.490 70.373 C 243.834 74.007,243.985 73.959,242.134 72.056 C 240.090 69.954,237.539 70.464,237.539 72.973 C 237.539 74.953,242.778 79.542,244.618 79.174 C 245.578 78.982,254.179 70.573,254.631 69.384 C 255.343 67.512,253.004 65.627,251.350 66.738 M176.146 141.791 C 172.262 142.706,170.935 147.437,173.668 150.630 C 175.299 152.535,173.825 152.439,200.134 152.361 L 223.620 152.291 224.849 151.408 C 228.127 149.053,228.026 144.622,224.643 142.422 L 223.603 141.745 200.126 141.709 C 187.213 141.689,176.422 141.726,176.146 141.791 " stroke="none" fill="#3eb485" fill-rule="evenodd"></path><path id="path2" d="M243.274 60.891 C 238.921 61.843,235.652 64.820,233.898 69.429 C 233.319 70.951,233.235 75.504,233.761 76.866 C 235.133 80.417,237.654 83.643,239.520 84.235 C 239.812 84.327,240.050 84.508,240.050 84.637 C 240.050 84.766,240.254 84.871,240.502 84.871 C 240.751 84.871,241.062 84.978,241.193 85.108 C 242.333 86.240,249.820 86.240,250.960 85.108 C 251.092 84.978,251.353 84.871,251.542 84.871 C 251.731 84.871,252.256 84.589,252.708 84.244 C 253.161 83.898,253.595 83.616,253.674 83.616 C 254.478 83.616,258.091 78.604,258.117 77.451 C 258.124 77.168,258.261 76.805,258.422 76.644 C 258.815 76.251,258.808 70.383,258.413 69.989 C 258.257 69.833,258.129 69.495,258.129 69.239 C 258.129 68.982,257.836 68.242,257.477 67.594 C 254.488 62.199,249.044 59.629,243.274 60.891 M253.666 66.350 C 255.005 66.982,255.521 68.846,254.694 70.063 C 253.881 71.261,245.942 79.003,245.096 79.424 C 243.537 80.200,242.714 79.783,239.548 76.613 L 237.163 74.224 237.163 72.950 C 237.163 70.023,240.056 69.354,242.344 71.751 C 243.972 73.459,243.616 73.604,247.726 69.554 C 251.565 65.772,251.974 65.551,253.666 66.350 M157.188 122.631 L 157.188 169.430 158.630 170.403 C 159.423 170.937,160.232 171.526,160.428 171.711 C 160.623 171.896,161.237 172.333,161.791 172.683 C 162.345 173.032,163.026 173.531,163.304 173.791 C 163.583 174.050,163.885 174.262,163.976 174.262 C 164.066 174.262,164.469 174.549,164.870 174.900 C 165.271 175.251,165.995 175.784,166.478 176.085 C 166.962 176.386,167.576 176.833,167.844 177.079 C 168.112 177.325,168.405 177.527,168.495 177.527 C 168.586 177.527,168.988 177.814,169.390 178.164 C 169.791 178.515,170.515 179.046,170.998 179.344 C 171.481 179.642,171.933 179.959,172.003 180.050 C 172.072 180.140,172.580 180.514,173.132 180.881 C 174.038 181.482,175.747 182.720,176.397 183.245 C 176.535 183.357,177.213 183.832,177.903 184.300 C 178.594 184.769,179.215 185.220,179.284 185.304 C 179.353 185.387,180.144 185.952,181.042 186.558 C 181.939 187.164,182.811 187.781,182.979 187.929 C 183.739 188.599,184.045 188.826,184.188 188.826 C 184.273 188.826,184.500 188.967,184.692 189.140 C 185.510 189.874,185.805 190.082,186.027 190.082 C 186.156 190.082,186.326 190.251,186.406 190.458 C 186.485 190.665,186.696 190.835,186.875 190.835 C 187.053 190.835,187.504 191.117,187.876 191.463 C 188.248 191.808,188.627 192.090,188.716 192.090 C 188.927 192.090,190.934 193.659,191.044 193.909 C 191.090 194.014,191.236 194.099,191.369 194.099 C 191.596 194.099,191.888 194.304,192.709 195.041 C 192.901 195.213,193.171 195.355,193.307 195.355 C 193.443 195.355,193.593 195.439,193.639 195.543 C 193.685 195.647,194.288 196.121,194.978 196.597 C 195.669 197.073,196.290 197.525,196.359 197.602 C 196.428 197.678,197.332 198.318,198.368 199.025 C 200.409 200.418,200.469 200.421,201.867 199.184 C 202.219 198.873,202.648 198.619,202.822 198.619 C 202.996 198.619,203.139 198.534,203.139 198.431 C 203.139 198.327,203.733 197.847,204.457 197.363 C 205.182 196.880,205.913 196.372,206.080 196.234 C 206.248 196.095,206.554 195.841,206.760 195.669 C 206.966 195.496,207.253 195.355,207.397 195.355 C 207.541 195.355,207.659 195.264,207.659 195.154 C 207.659 195.043,208.173 194.628,208.801 194.230 C 209.429 193.833,210.249 193.246,210.621 192.925 C 210.994 192.604,211.373 192.342,211.464 192.342 C 211.602 192.342,212.464 191.687,214.114 190.331 C 214.280 190.194,214.535 190.082,214.679 190.082 C 214.823 190.082,214.940 189.994,214.940 189.888 C 214.940 189.781,215.308 189.495,215.756 189.252 C 216.205 189.009,216.968 188.476,217.451 188.068 C 217.935 187.659,218.467 187.211,218.633 187.071 C 218.800 186.932,219.003 186.817,219.083 186.817 C 219.164 186.817,219.367 186.703,219.534 186.563 C 219.700 186.423,220.289 185.973,220.841 185.562 C 221.394 185.151,221.959 184.728,222.097 184.621 C 222.235 184.515,222.684 184.212,223.095 183.948 C 223.505 183.684,223.957 183.372,224.099 183.255 C 224.241 183.138,225.882 181.952,227.746 180.621 C 229.611 179.289,231.174 178.105,231.220 177.989 C 231.266 177.873,231.408 177.778,231.536 177.778 C 231.769 177.778,235.358 175.205,235.989 174.586 C 236.173 174.406,236.568 174.128,236.868 173.968 C 237.698 173.525,242.912 169.712,243.123 169.394 C 243.528 168.783,243.221 91.596,242.812 91.396 C 242.605 91.294,241.758 91.014,240.929 90.773 C 235.028 89.055,230.617 84.652,228.635 78.499 C 228.284 77.411,227.997 76.366,227.997 76.176 C 227.997 75.886,222.433 75.832,192.593 75.832 L 157.188 75.832 157.188 122.631 M182.848 87.822 C 184.864 88.998,184.850 91.628,182.821 92.601 C 181.740 93.119,168.874 93.265,168.541 92.763 C 168.442 92.614,168.167 92.422,167.930 92.334 C 166.544 91.823,166.625 89.193,168.065 87.981 C 169.031 87.168,181.497 87.034,182.848 87.822 M231.292 100.874 C 232.759 101.740,232.816 104.263,231.392 105.349 L 230.587 105.964 199.838 105.964 C 175.767 105.964,168.943 105.895,168.413 105.650 C 166.507 104.765,166.565 101.384,168.499 100.623 C 169.579 100.198,230.559 100.441,231.292 100.874 M230.819 118.588 C 232.531 119.477,233.001 121.817,231.736 123.151 L 231.136 123.783 199.730 123.787 L 168.324 123.792 167.757 123.189 C 166.568 121.923,166.843 119.654,168.293 118.771 C 169.331 118.138,229.611 117.962,230.819 118.588 M225.110 136.756 C 225.386 136.912,226.160 137.293,226.830 137.602 C 231.615 139.812,233.907 146.650,231.498 151.529 C 230.141 154.277,226.734 157.188,224.875 157.188 C 224.537 157.188,224.191 157.301,224.105 157.439 C 224.004 157.603,215.570 157.690,199.623 157.690 C 183.676 157.690,175.243 157.603,175.141 157.439 C 175.056 157.301,174.732 157.188,174.421 157.188 C 174.110 157.188,173.637 157.022,173.369 156.819 C 173.101 156.616,172.688 156.447,172.451 156.442 C 170.744 156.411,167.563 151.655,166.973 148.254 C 166.743 146.926,166.737 146.344,166.948 145.948 C 167.104 145.657,167.232 145.066,167.232 144.634 C 167.232 142.552,169.927 138.967,172.410 137.747 C 174.390 136.774,174.762 136.633,175.643 136.514 C 177.576 136.253,224.628 136.484,225.110 136.756 M133.333 197.238 L 133.333 235.279 200.251 235.279 L 267.169 235.279 267.169 197.238 C 267.169 172.044,267.084 159.196,266.918 159.196 C 266.780 159.196,266.667 159.302,266.667 159.431 C 266.667 159.559,266.469 159.728,266.227 159.806 C 265.986 159.884,265.392 160.287,264.909 160.701 C 264.426 161.116,263.963 161.455,263.880 161.456 C 263.798 161.456,263.459 161.680,263.127 161.954 C 262.795 162.228,262.408 162.547,262.266 162.665 C 262.124 162.782,261.672 163.094,261.262 163.357 C 260.851 163.621,260.233 164.092,259.890 164.404 C 259.546 164.716,259.150 164.974,259.011 164.977 C 258.871 164.979,258.305 165.376,257.753 165.858 C 257.200 166.340,256.551 166.798,256.309 166.875 C 256.067 166.952,255.869 167.120,255.869 167.249 C 255.869 167.377,255.750 167.483,255.604 167.483 C 255.355 167.483,253.886 168.552,252.755 169.554 C 252.482 169.796,252.176 169.994,252.074 169.994 C 251.971 169.994,251.738 170.135,251.556 170.308 C 251.373 170.480,250.631 171.017,249.906 171.500 C 249.182 171.984,248.588 172.464,248.588 172.567 C 248.588 172.671,248.427 172.756,248.232 172.756 C 248.036 172.756,247.838 172.841,247.792 172.944 C 247.746 173.048,247.063 173.572,246.275 174.109 C 245.486 174.646,244.615 175.296,244.339 175.553 C 244.063 175.810,243.783 176.020,243.716 176.020 C 243.649 176.020,239.688 178.845,234.913 182.298 C 230.138 185.750,226.129 188.575,226.005 188.575 C 225.881 188.575,225.742 188.674,225.696 188.794 C 225.587 189.080,214.482 197.112,214.196 197.112 C 214.076 197.112,213.940 197.203,213.894 197.315 C 213.774 197.605,209.969 200.377,209.691 200.377 C 209.563 200.377,209.420 200.475,209.374 200.596 C 209.290 200.817,204.759 204.143,204.542 204.143 C 204.478 204.143,204.074 204.464,203.644 204.856 C 202.633 205.780,200.986 206.654,200.256 206.654 C 199.534 206.654,197.310 205.435,196.610 204.655 C 196.541 204.578,196.062 204.234,195.545 203.890 C 195.028 203.546,194.604 203.180,194.603 203.076 C 194.602 202.972,194.480 202.888,194.332 202.888 C 194.184 202.888,193.906 202.746,193.713 202.574 C 192.972 201.909,192.609 201.632,192.478 201.632 C 192.265 201.632,183.210 195.071,182.898 194.690 C 182.744 194.503,182.548 194.350,182.461 194.350 C 182.374 194.350,180.126 192.784,177.467 190.869 C 163.214 180.608,151.257 171.988,151.036 171.812 C 150.898 171.703,149.881 170.966,148.776 170.174 C 147.671 169.383,146.541 168.555,146.265 168.335 C 145.989 168.115,145.311 167.636,144.758 167.270 C 144.206 166.903,143.536 166.407,143.270 166.167 C 143.004 165.927,142.580 165.665,142.329 165.585 C 142.077 165.506,141.871 165.335,141.871 165.206 C 141.871 165.077,141.701 164.972,141.494 164.972 C 141.287 164.972,141.117 164.881,141.117 164.771 C 141.117 164.661,140.668 164.294,140.120 163.955 C 139.571 163.617,139.119 163.255,139.115 163.151 C 139.112 163.048,138.991 162.963,138.847 162.963 C 138.702 162.963,138.280 162.680,137.907 162.335 C 137.535 161.990,137.088 161.707,136.914 161.707 C 136.740 161.707,136.598 161.617,136.598 161.505 C 136.598 161.394,135.978 160.914,135.220 160.438 C 134.462 159.962,133.840 159.488,133.839 159.385 C 133.837 159.281,133.723 159.196,133.584 159.196 C 133.418 159.196,133.333 172.044,133.333 197.238 M230.680 168.360 C 232.495 169.265,233.016 171.518,231.726 172.879 L 231.136 173.500 217.380 173.505 C 202.818 173.509,202.385 173.476,202.385 172.350 C 202.385 172.159,202.272 172.003,202.134 172.003 C 201.038 172.003,202.370 168.968,203.727 168.373 C 204.951 167.837,229.607 167.824,230.680 168.360 " stroke="none" fill="#fbfbfb" fill-rule="evenodd"></path><path id="path3" d="M245.261 60.194 C 245.709 60.250,246.444 60.250,246.893 60.194 C 247.341 60.138,246.974 60.093,246.077 60.093 C 245.179 60.093,244.812 60.138,245.261 60.194 M236.521 64.218 L 235.656 65.160 236.598 64.295 C 237.116 63.819,237.539 63.395,237.539 63.353 C 237.539 63.161,237.327 63.342,236.521 64.218 M239.237 70.736 C 239.549 70.796,240.001 70.794,240.241 70.731 C 240.482 70.668,240.226 70.619,239.674 70.622 C 239.121 70.625,238.925 70.676,239.237 70.736 M237.346 72.819 C 237.346 73.302,237.398 73.500,237.461 73.258 C 237.524 73.016,237.524 72.621,237.461 72.379 C 237.398 72.137,237.346 72.335,237.346 72.819 M238.544 75.204 C 239.012 75.687,239.452 76.083,239.521 76.083 C 239.590 76.083,239.263 75.687,238.795 75.204 C 238.326 74.721,237.886 74.325,237.817 74.325 C 237.748 74.325,238.075 74.721,238.544 75.204 M156.838 75.476 C 156.395 76.631,156.683 169.489,157.131 169.931 C 157.376 170.173,158.250 170.822,159.073 171.375 C 159.896 171.927,160.790 172.577,161.060 172.819 C 161.330 173.060,161.635 173.258,161.737 173.258 C 161.839 173.258,162.072 173.407,162.255 173.589 C 162.437 173.771,164.112 175.012,165.976 176.347 C 167.841 177.681,169.479 178.863,169.617 178.973 C 169.755 179.084,170.430 179.566,171.118 180.045 C 171.805 180.524,172.588 181.113,172.857 181.353 C 173.126 181.593,173.553 181.855,173.804 181.935 C 174.056 182.015,174.262 182.186,174.262 182.314 C 174.262 182.443,174.432 182.549,174.639 182.549 C 174.846 182.549,175.016 182.633,175.017 182.737 C 175.018 182.841,175.442 183.207,175.959 183.551 C 176.476 183.895,176.955 184.245,177.024 184.329 C 177.094 184.414,177.659 184.798,178.280 185.184 C 178.901 185.570,179.500 186.039,179.611 186.226 C 179.721 186.413,179.927 186.566,180.068 186.566 C 180.209 186.566,180.482 186.707,180.675 186.880 C 181.428 187.555,181.780 187.822,181.921 187.822 C 182.002 187.822,182.204 187.938,182.371 188.080 C 183.281 188.854,185.647 190.584,185.796 190.584 C 185.891 190.584,186.191 190.782,186.462 191.023 C 186.733 191.265,187.517 191.854,188.204 192.333 C 188.892 192.811,189.603 193.348,189.786 193.525 C 189.968 193.703,190.201 193.848,190.303 193.848 C 190.405 193.848,190.717 194.060,190.996 194.320 C 191.274 194.579,191.955 195.078,192.509 195.428 C 193.063 195.777,193.676 196.219,193.871 196.409 C 194.065 196.599,194.620 197.000,195.104 197.300 C 195.587 197.600,196.311 198.133,196.712 198.484 C 197.113 198.834,197.516 199.121,197.606 199.121 C 197.697 199.121,197.990 199.325,198.258 199.573 C 199.749 200.958,200.987 201.050,201.883 199.842 C 202.005 199.679,204.096 198.206,205.905 197.011 C 206.390 196.690,206.940 196.243,207.128 196.017 C 207.315 195.791,207.597 195.606,207.755 195.606 C 207.912 195.606,208.345 195.323,208.717 194.978 C 209.090 194.633,209.512 194.350,209.656 194.350 C 209.800 194.350,209.921 194.266,209.925 194.162 C 209.929 194.058,210.381 193.697,210.930 193.358 C 211.478 193.020,211.927 192.652,211.927 192.542 C 211.927 192.432,212.097 192.341,212.304 192.341 C 212.511 192.341,212.680 192.236,212.680 192.107 C 212.680 191.979,212.887 191.808,213.138 191.728 C 213.390 191.648,213.814 191.382,214.080 191.138 C 214.346 190.893,214.959 190.450,215.443 190.153 C 215.926 189.856,216.549 189.407,216.826 189.157 C 217.104 188.906,217.923 188.305,218.646 187.822 C 219.370 187.338,219.962 186.858,219.962 186.755 C 219.962 186.651,220.105 186.566,220.279 186.566 C 220.453 186.566,220.877 186.312,221.220 186.001 C 221.564 185.691,222.298 185.137,222.850 184.771 C 223.402 184.404,224.080 183.924,224.357 183.703 C 224.633 183.482,225.749 182.670,226.837 181.900 C 227.925 181.130,228.942 180.394,229.097 180.264 C 229.252 180.135,230.282 179.393,231.387 178.616 C 232.492 177.838,233.434 177.106,233.480 176.988 C 233.526 176.870,233.668 176.773,233.796 176.773 C 234.074 176.773,237.880 174.002,238.000 173.711 C 238.046 173.600,238.182 173.509,238.302 173.509 C 238.585 173.509,243.383 170.036,243.625 169.656 C 243.868 169.273,243.872 91.213,243.628 91.062 C 243.525 90.998,243.469 108.539,243.504 130.043 C 243.556 161.121,243.504 169.223,243.253 169.543 C 243.080 169.765,239.492 172.424,235.279 175.453 C 215.509 189.666,203.704 198.174,203.042 198.686 C 202.644 198.994,201.852 199.541,201.282 199.901 L 200.245 200.554 199.466 200.026 C 198.336 199.260,196.120 197.707,195.104 196.968 C 194.131 196.262,193.743 195.984,192.098 194.814 C 191.481 194.376,190.860 193.921,190.717 193.805 C 190.575 193.688,189.554 192.949,188.449 192.163 C 187.345 191.376,186.384 190.670,186.315 190.595 C 186.246 190.520,185.597 190.063,184.872 189.579 C 184.147 189.096,183.554 188.616,183.554 188.512 C 183.553 188.409,183.439 188.324,183.300 188.324 C 183.100 188.324,180.313 186.377,178.908 185.256 C 178.770 185.146,173.911 181.655,168.110 177.500 C 162.310 173.344,157.423 169.764,157.250 169.544 C 156.889 169.083,156.784 76.210,157.145 75.642 C 157.304 75.390,164.545 75.339,192.773 75.391 C 212.258 75.426,228.148 75.370,228.084 75.267 C 227.820 74.840,157.002 75.048,156.838 75.476 M240.929 77.589 C 241.609 78.280,242.222 78.845,242.291 78.845 C 242.360 78.845,241.860 78.280,241.180 77.589 C 240.500 76.899,239.887 76.334,239.818 76.334 C 239.749 76.334,240.249 76.899,240.929 77.589 M168.011 88.362 C 166.638 89.645,166.974 91.829,168.652 92.530 C 170.043 93.111,181.420 93.077,182.656 92.488 C 184.434 91.640,184.519 89.066,182.802 88.052 C 182.190 87.690,181.198 87.633,175.443 87.633 L 168.791 87.633 168.011 88.362 M182.700 88.362 C 184.244 89.303,183.997 91.569,182.275 92.258 C 180.888 92.813,170.249 92.841,168.937 92.293 C 167.141 91.543,166.889 89.514,168.461 88.458 C 169.676 87.642,181.390 87.563,182.700 88.362 M167.920 101.328 C 166.951 102.227,166.930 104.086,167.880 104.978 L 168.528 105.587 199.791 105.587 L 231.054 105.587 231.660 104.882 C 232.549 103.849,232.495 102.388,231.532 101.425 L 230.798 100.691 199.703 100.691 L 168.608 100.691 167.920 101.328 M231.340 101.646 C 232.164 102.506,232.224 103.622,231.495 104.549 L 230.974 105.210 199.661 105.210 C 168.599 105.210,168.344 105.206,167.915 104.705 C 167.209 103.880,167.342 102.251,168.173 101.536 L 168.864 100.942 199.765 100.942 L 230.666 100.942 231.340 101.646 M168.570 118.885 C 166.744 119.679,166.690 122.486,168.482 123.412 C 169.124 123.745,173.010 123.792,199.784 123.792 L 230.352 123.792 231.169 123.231 C 232.826 122.096,232.528 119.424,230.672 118.777 C 229.425 118.342,169.578 118.446,168.570 118.885 M231.376 119.660 C 232.080 120.364,232.238 121.662,231.701 122.326 C 230.659 123.613,232.583 123.540,199.654 123.540 L 169.162 123.540 168.323 122.900 C 167.192 122.038,167.103 120.360,168.144 119.541 C 168.806 119.021,168.825 119.021,199.771 119.021 L 230.737 119.021 231.376 119.660 M174.262 137.071 C 165.599 140.185,164.686 152.556,172.837 156.387 C 174.606 157.219,174.856 157.026,173.132 156.158 C 171.182 155.176,169.420 153.434,168.603 151.679 C 168.246 150.911,167.847 150.086,167.718 149.846 C 167.423 149.299,167.408 144.777,167.699 144.190 C 167.818 143.950,168.220 143.132,168.592 142.373 C 169.864 139.778,171.524 138.403,174.773 137.252 C 175.787 136.893,178.491 136.849,199.613 136.849 L 223.314 136.849 225.164 137.487 C 227.101 138.156,227.746 138.581,229.339 140.239 C 231.030 141.998,231.712 143.631,232.016 146.642 L 232.230 148.776 232.157 146.516 C 232.008 141.876,229.469 138.600,224.764 136.977 C 223.050 136.385,175.926 136.473,174.262 137.071 M248.504 141.285 C 248.274 141.514,248.298 165.027,248.529 165.380 C 248.767 165.744,249.503 165.450,250.447 164.614 C 250.848 164.258,251.245 163.967,251.329 163.967 C 251.412 163.967,251.931 163.574,252.482 163.093 C 253.033 162.613,253.598 162.217,253.738 162.214 C 253.877 162.212,254.296 161.927,254.668 161.582 C 255.041 161.237,255.417 160.954,255.505 160.954 C 255.593 160.954,256.191 160.553,256.834 160.062 C 258.226 159.001,261.799 156.406,263.541 155.192 C 265.453 153.859,265.806 153.396,265.238 152.971 C 263.382 151.583,248.784 141.117,248.704 141.117 C 248.686 141.117,248.596 141.193,248.504 141.285 M143.079 147.325 C 133.776 154.053,134.268 153.390,137.148 155.315 C 138.157 155.990,139.264 156.800,139.608 157.116 C 139.952 157.432,140.348 157.692,140.487 157.695 C 140.627 157.697,141.191 158.093,141.742 158.574 C 142.293 159.054,142.813 159.448,142.897 159.448 C 142.981 159.448,143.321 159.687,143.653 159.979 C 143.985 160.272,144.708 160.797,145.261 161.147 C 145.813 161.497,146.321 161.862,146.390 161.958 C 146.460 162.055,146.925 162.405,147.426 162.737 C 147.926 163.068,149.022 163.820,149.860 164.407 C 152.374 166.166,152.166 167.158,152.166 153.421 C 152.166 142.106,152.139 141.369,151.726 141.379 C 151.485 141.385,147.593 144.060,143.079 147.325 M151.412 153.562 C 151.412 162.645,151.348 164.963,151.099 164.815 C 150.926 164.713,149.967 164.029,148.967 163.294 C 147.967 162.560,147.035 161.959,146.895 161.959 C 146.756 161.959,146.641 161.874,146.641 161.770 C 146.641 161.667,146.049 161.186,145.325 160.703 C 144.601 160.220,143.727 159.570,143.382 159.259 C 143.037 158.949,142.622 158.694,142.459 158.694 C 142.297 158.694,142.126 158.600,142.080 158.485 C 141.987 158.253,138.212 155.430,137.994 155.430 C 137.919 155.430,137.602 155.213,137.290 154.947 C 136.978 154.681,136.441 154.240,136.097 153.966 L 135.471 153.468 136.348 152.696 C 136.831 152.270,137.338 151.919,137.476 151.915 C 137.615 151.910,138.110 151.569,138.578 151.157 C 139.045 150.745,139.497 150.408,139.582 150.408 C 139.667 150.408,140.075 150.112,140.490 149.751 C 140.904 149.389,141.695 148.808,142.247 148.458 C 142.800 148.108,143.308 147.754,143.377 147.671 C 143.446 147.588,144.096 147.125,144.821 146.642 C 145.545 146.158,146.139 145.678,146.139 145.574 C 146.139 145.471,146.282 145.386,146.456 145.386 C 146.630 145.386,147.077 145.104,147.449 144.758 C 147.822 144.413,148.200 144.131,148.289 144.131 C 148.500 144.131,150.507 142.562,150.617 142.312 C 150.663 142.207,150.861 142.122,151.057 142.122 C 151.358 142.122,151.412 143.859,151.412 153.562 M250.937 143.124 C 251.647 143.675,252.365 144.240,252.532 144.379 C 252.699 144.519,252.953 144.633,253.097 144.633 C 253.241 144.633,253.358 144.749,253.358 144.892 C 253.358 145.034,253.556 145.226,253.798 145.317 C 254.040 145.409,254.375 145.603,254.542 145.749 C 255.398 146.492,255.619 146.642,255.859 146.642 C 256.003 146.642,256.124 146.726,256.127 146.830 C 256.131 146.933,256.583 147.295,257.132 147.634 C 257.680 147.972,258.129 148.339,258.129 148.450 C 258.129 148.560,258.247 148.650,258.391 148.650 C 258.637 148.650,258.921 148.847,259.752 149.592 C 259.945 149.765,260.214 149.906,260.350 149.906 C 260.487 149.906,260.636 149.991,260.682 150.094 C 260.728 150.198,261.331 150.675,262.021 151.154 C 263.332 152.064,263.690 152.335,264.272 152.856 C 264.465 153.029,264.771 153.171,264.954 153.171 C 265.376 153.173,264.070 154.392,262.837 155.146 C 262.320 155.463,261.896 155.826,261.896 155.953 C 261.896 156.080,261.770 156.183,261.617 156.183 C 261.399 156.183,257.792 158.698,256.497 159.754 C 256.359 159.866,255.342 160.594,254.237 161.372 C 253.132 162.149,252.191 162.882,252.145 163.000 C 252.099 163.118,251.946 163.214,251.804 163.214 C 251.663 163.214,251.119 163.553,250.596 163.967 C 250.073 164.382,249.520 164.721,249.368 164.721 C 249.169 164.721,249.090 161.509,249.090 153.421 C 249.090 145.329,249.169 142.122,249.368 142.122 C 249.521 142.122,250.227 142.573,250.937 143.124 M231.529 150.082 C 230.831 152.477,228.466 155.295,226.491 156.086 C 226.284 156.169,225.719 156.423,225.235 156.650 C 224.439 157.024,222.037 157.062,199.565 157.062 C 183.299 157.062,175.010 157.146,175.460 157.305 C 176.757 157.764,221.259 157.775,223.527 157.317 C 226.462 156.724,230.760 153.903,230.760 152.569 C 230.760 152.438,230.909 152.152,231.092 151.934 C 231.507 151.438,232.109 149.561,231.979 149.169 C 231.925 149.008,231.723 149.419,231.529 150.082 M132.747 158.611 C 132.420 158.938,132.552 235.402,132.881 235.731 C 133.355 236.205,267.248 236.166,267.641 235.692 C 268.239 234.972,267.895 158.553,267.294 158.650 C 267.018 158.694,266.397 159.008,265.913 159.347 C 264.309 160.473,263.281 161.219,262.900 161.532 C 262.693 161.703,262.128 162.090,261.645 162.393 C 261.161 162.696,260.438 163.230,260.036 163.581 C 259.635 163.932,259.233 164.218,259.142 164.218 C 259.051 164.218,258.758 164.420,258.491 164.666 C 258.223 164.912,257.608 165.356,257.125 165.654 C 256.642 165.951,256.018 166.399,255.740 166.650 C 255.462 166.901,254.422 167.657,253.430 168.331 C 252.438 169.005,251.423 169.739,251.174 169.963 C 250.925 170.187,250.270 170.670,249.718 171.036 C 249.165 171.402,248.487 171.881,248.211 172.099 C 247.935 172.317,246.240 173.536,244.444 174.808 C 242.649 176.079,241.124 177.184,241.055 177.263 C 240.986 177.341,240.506 177.687,239.989 178.031 C 239.472 178.375,239.048 178.741,239.048 178.845 C 239.047 178.949,238.934 179.033,238.798 179.033 C 238.661 179.033,232.870 183.136,225.929 188.150 C 198.997 207.606,201.469 205.901,200.199 205.901 C 199.355 205.901,198.863 205.736,198.277 205.258 C 197.844 204.905,192.913 201.331,187.320 197.315 C 181.726 193.300,173.704 187.524,169.492 184.480 C 165.279 181.436,159.827 177.496,157.376 175.725 C 154.925 173.954,152.815 172.505,152.689 172.505 C 152.562 172.505,152.421 172.407,152.375 172.287 C 152.290 172.066,141.182 163.967,140.963 163.967 C 140.898 163.967,140.540 163.685,140.167 163.340 C 139.795 162.994,139.357 162.712,139.195 162.712 C 139.032 162.712,138.862 162.626,138.816 162.522 C 138.678 162.210,136.672 160.703,136.394 160.703 C 136.253 160.703,136.100 160.600,136.054 160.474 C 135.959 160.215,133.382 158.443,133.099 158.443 C 132.998 158.443,132.840 158.519,132.747 158.611 M142.170 165.168 C 152.733 172.798,169.424 184.817,170.152 185.319 C 170.604 185.630,176.061 189.595,178.000 191.022 C 178.922 191.700,181.785 193.735,183.112 194.654 C 183.767 195.109,184.558 195.691,184.870 195.949 C 185.181 196.207,185.880 196.702,186.423 197.048 C 186.966 197.394,187.699 197.946,188.052 198.274 C 188.406 198.602,188.795 198.870,188.916 198.870 C 189.037 198.870,189.514 199.181,189.976 199.561 C 191.236 200.596,192.083 201.225,193.471 202.156 C 194.162 202.619,194.946 203.199,195.214 203.445 C 195.481 203.691,195.784 203.892,195.886 203.892 C 195.988 203.892,196.223 204.033,196.407 204.206 C 199.075 206.705,201.187 206.864,203.478 204.740 C 203.832 204.412,204.182 204.143,204.256 204.143 C 204.329 204.143,204.877 203.776,205.472 203.327 C 206.067 202.878,206.873 202.285,207.263 202.009 C 207.654 201.733,208.269 201.280,208.632 201.002 C 208.994 200.725,209.856 200.108,210.546 199.630 C 211.237 199.153,211.936 198.645,212.101 198.502 C 212.265 198.359,212.773 197.983,213.230 197.666 C 215.074 196.387,250.711 170.707,261.966 162.547 C 264.698 160.566,267.043 158.945,267.177 158.945 C 267.335 158.945,267.399 172.522,267.358 197.175 L 267.294 235.405 200.126 235.405 L 132.957 235.405 132.892 197.489 C 132.857 176.635,132.881 159.432,132.947 159.259 C 133.164 158.689,133.488 158.897,142.170 165.168 M203.945 168.519 C 201.701 169.167,201.655 173.240,203.892 173.242 C 204.150 173.243,204.111 173.156,203.766 172.968 C 202.419 172.231,202.157 170.156,203.298 169.259 C 203.947 168.748,228.875 168.408,230.653 168.885 C 232.059 169.262,232.406 171.436,231.235 172.530 C 230.365 173.342,230.554 173.517,231.474 172.751 C 232.826 171.624,232.353 169.315,230.623 168.592 C 229.611 168.169,205.388 168.103,203.945 168.519 " stroke="none" fill="#a199c6" fill-rule="evenodd"></path><path id="path4" d="M243.315 60.515 C 243.107 60.649,242.738 60.760,242.493 60.762 C 241.498 60.771,238.608 62.465,236.985 63.993 C 232.317 68.385,231.614 76.544,235.510 81.105 C 238.704 84.844,241.748 86.359,246.077 86.364 C 261.364 86.383,264.001 64.481,249.177 60.620 C 247.624 60.215,243.882 60.148,243.315 60.515 M248.447 60.796 C 252.680 61.579,258.129 66.331,258.129 69.239 C 258.129 69.495,258.257 69.833,258.413 69.989 C 258.808 70.383,258.815 76.251,258.422 76.644 C 258.261 76.805,258.124 77.168,258.117 77.451 C 258.091 78.604,254.478 83.616,253.674 83.616 C 253.595 83.616,253.161 83.898,252.708 84.244 C 252.256 84.589,251.731 84.871,251.542 84.871 C 251.353 84.871,251.092 84.978,250.960 85.108 C 249.820 86.240,242.333 86.240,241.193 85.108 C 241.062 84.978,240.751 84.871,240.502 84.871 C 240.254 84.871,240.050 84.766,240.050 84.637 C 240.050 84.508,239.812 84.327,239.520 84.235 C 238.242 83.829,235.813 81.257,234.861 79.300 C 233.542 76.590,233.433 76.139,233.427 73.350 C 233.407 65.212,240.457 59.319,248.447 60.796 M247.726 69.554 C 243.616 73.604,243.972 73.459,242.344 71.751 C 240.056 69.354,237.163 70.023,237.163 72.950 L 237.163 74.224 239.548 76.613 C 243.931 81.003,243.948 81.000,250.112 74.841 C 255.491 69.467,255.742 69.058,254.721 67.330 C 253.335 64.984,251.903 65.439,247.726 69.554 M253.587 66.655 C 254.448 67.100,254.984 68.290,254.749 69.236 C 254.537 70.092,245.664 79.096,245.033 79.096 C 244.795 79.096,244.534 79.203,244.453 79.334 C 243.653 80.628,237.288 74.723,237.288 72.686 C 237.288 70.364,239.923 69.929,242.015 71.905 C 244.056 73.834,243.753 73.938,247.868 69.898 C 251.784 66.054,252.089 65.880,253.587 66.655 M157.061 75.894 C 156.986 76.205,156.956 97.363,156.994 122.913 L 157.063 169.366 157.126 122.599 L 157.188 75.832 192.593 75.832 C 222.433 75.832,227.997 75.886,227.997 76.176 C 227.997 76.366,228.284 77.411,228.635 78.499 C 230.617 84.652,235.028 89.055,240.929 90.773 C 241.758 91.014,242.605 91.294,242.812 91.396 C 243.144 91.558,243.196 96.186,243.253 130.411 L 243.316 169.242 242.750 169.725 C 241.119 171.115,241.028 171.223,242.129 170.469 C 243.721 169.378,243.586 173.370,243.509 129.818 L 243.440 91.023 242.812 90.947 C 238.723 90.448,233.666 87.101,231.152 83.229 C 229.916 81.325,229.620 80.604,228.419 76.585 L 228.081 75.455 192.639 75.391 L 157.198 75.328 157.061 75.894 M168.004 88.032 C 167.579 88.390,167.232 88.774,167.232 88.886 C 167.232 88.999,167.583 88.763,168.011 88.362 L 168.791 87.633 175.443 87.633 C 182.761 87.633,183.215 87.717,183.822 89.184 C 184.165 90.011,183.947 91.472,183.400 92.020 C 183.188 92.231,183.134 92.404,183.279 92.404 C 184.029 92.404,184.620 90.365,184.163 89.352 C 183.306 87.452,182.999 87.382,175.445 87.382 L 168.777 87.382 168.004 88.032 M166.857 89.888 C 166.770 90.162,166.815 90.585,166.958 90.830 C 167.169 91.193,167.218 91.101,167.224 90.333 C 167.232 89.292,167.098 89.129,166.857 89.888 M172.442 93.094 C 174.134 93.137,176.902 93.137,178.594 93.094 C 180.286 93.051,178.901 93.015,175.518 93.015 C 172.134 93.015,170.750 93.051,172.442 93.094 M199.833 100.689 L 231.054 100.816 231.660 101.521 C 232.213 102.163,232.514 102.188,232.074 101.555 C 231.260 100.382,232.882 100.435,199.630 100.500 L 168.613 100.561 199.833 100.689 M167.628 101.207 C 166.925 101.916,167.245 101.988,167.980 101.286 C 168.322 100.958,168.492 100.697,168.356 100.705 C 168.221 100.714,167.893 100.939,167.628 101.207 M166.917 102.762 C 166.852 102.935,166.888 103.302,166.998 103.578 C 167.159 103.987,167.200 103.929,167.214 103.264 C 167.232 102.416,167.119 102.223,166.917 102.762 M168.651 105.775 C 168.715 105.879,182.709 105.964,199.749 105.964 C 216.788 105.964,230.782 105.879,230.846 105.775 C 230.910 105.672,216.916 105.587,199.749 105.587 C 182.581 105.587,168.587 105.672,168.651 105.775 M168.230 118.832 C 167.771 119.143,167.347 119.545,167.288 119.726 C 167.229 119.906,167.462 119.772,167.806 119.428 C 168.756 118.478,168.120 118.495,200.415 118.572 C 217.078 118.612,230.659 118.559,230.595 118.456 C 230.531 118.352,216.660 118.267,199.771 118.267 L 169.064 118.267 168.230 118.832 M231.151 118.962 C 231.297 119.063,231.608 119.426,231.841 119.767 C 232.075 120.109,232.266 120.251,232.266 120.084 C 232.266 119.689,231.477 118.768,231.143 118.773 C 230.973 118.776,230.976 118.840,231.151 118.962 M167.044 121.155 C 167.047 121.707,167.098 121.904,167.158 121.592 C 167.218 121.279,167.216 120.827,167.153 120.587 C 167.090 120.347,167.041 120.603,167.044 121.155 M232.031 122.285 C 232.017 122.492,231.643 122.916,231.198 123.227 C 230.754 123.537,230.558 123.790,230.763 123.787 C 231.279 123.781,232.339 122.615,232.183 122.226 C 232.093 122.003,232.048 122.020,232.031 122.285 M167.251 122.430 C 167.224 122.804,168.315 123.792,168.754 123.791 C 168.953 123.790,168.760 123.573,168.327 123.309 C 167.893 123.045,167.478 122.678,167.405 122.494 C 167.331 122.310,167.262 122.281,167.251 122.430 M187.884 136.535 C 194.341 136.572,204.906 136.572,211.362 136.535 C 217.819 136.497,212.536 136.467,199.623 136.467 C 186.711 136.467,181.428 136.497,187.884 136.535 M224.357 136.849 C 225.048 137.146,225.293 137.146,225.110 136.849 C 225.025 136.711,224.707 136.606,224.405 136.615 C 223.874 136.632,223.872 136.641,224.357 136.849 M226.080 137.478 C 226.991 137.953,227.265 137.948,226.631 137.468 C 226.363 137.266,225.968 137.101,225.752 137.101 C 225.537 137.102,225.685 137.272,226.080 137.478 M170.562 139.046 C 169.888 139.702,169.739 139.888,170.230 139.460 C 170.722 139.032,171.403 138.495,171.745 138.267 C 172.086 138.039,172.235 137.853,172.076 137.853 C 171.917 137.853,171.235 138.390,170.562 139.046 M227.872 138.460 C 228.286 138.792,228.669 139.020,228.724 138.967 C 228.859 138.833,227.680 137.871,227.370 137.863 C 227.232 137.859,227.458 138.127,227.872 138.460 M229.744 140.050 C 230.211 140.637,230.638 141.117,230.693 141.117 C 230.871 141.117,229.794 139.704,229.337 139.337 C 229.095 139.143,229.278 139.463,229.744 140.050 M168.533 141.306 C 167.980 142.084,167.225 143.794,167.245 144.224 C 167.252 144.380,167.441 144.055,167.666 143.503 C 167.891 142.950,168.338 142.075,168.661 141.557 C 169.341 140.464,169.253 140.292,168.533 141.306 M150.617 142.312 C 150.507 142.562,148.500 144.131,148.289 144.131 C 148.200 144.131,147.822 144.413,147.449 144.758 C 147.077 145.104,146.630 145.386,146.456 145.386 C 146.282 145.386,146.139 145.471,146.139 145.574 C 146.139 145.678,145.545 146.158,144.821 146.642 C 144.096 147.125,143.446 147.588,143.377 147.671 C 143.308 147.754,142.800 148.108,142.247 148.458 C 141.695 148.808,140.904 149.389,140.490 149.751 C 140.075 150.112,139.667 150.408,139.582 150.408 C 139.497 150.408,139.045 150.745,138.578 151.157 C 138.110 151.569,137.615 151.910,137.476 151.915 C 137.338 151.919,136.831 152.270,136.348 152.696 L 135.471 153.468 136.097 153.966 C 136.441 154.240,136.978 154.681,137.290 154.947 C 137.602 155.213,137.919 155.430,137.994 155.430 C 138.212 155.430,141.987 158.253,142.080 158.485 C 142.126 158.600,142.297 158.694,142.459 158.694 C 142.622 158.694,143.037 158.949,143.382 159.259 C 143.727 159.570,144.601 160.220,145.325 160.703 C 146.049 161.186,146.641 161.667,146.641 161.770 C 146.641 161.874,146.756 161.959,146.895 161.959 C 147.035 161.959,147.967 162.560,148.967 163.294 C 149.967 164.029,150.926 164.713,151.099 164.815 C 151.348 164.963,151.412 162.645,151.412 153.562 C 151.412 143.859,151.358 142.122,151.057 142.122 C 150.861 142.122,150.663 142.207,150.617 142.312 M249.090 153.421 C 249.090 161.509,249.169 164.721,249.368 164.721 C 249.520 164.721,250.073 164.382,250.596 163.967 C 251.119 163.553,251.663 163.214,251.804 163.214 C 251.946 163.214,252.099 163.118,252.145 163.000 C 252.191 162.882,253.132 162.149,254.237 161.372 C 255.342 160.594,256.359 159.866,256.497 159.754 C 257.792 158.698,261.399 156.183,261.617 156.183 C 261.770 156.183,261.896 156.080,261.896 155.953 C 261.896 155.826,262.320 155.463,262.837 155.146 C 264.070 154.392,265.376 153.173,264.954 153.171 C 264.771 153.171,264.465 153.029,264.272 152.856 C 263.690 152.335,263.332 152.064,262.021 151.154 C 261.331 150.675,260.728 150.198,260.682 150.094 C 260.636 149.991,260.487 149.906,260.350 149.906 C 260.214 149.906,259.945 149.765,259.752 149.592 C 258.921 148.847,258.637 148.650,258.391 148.650 C 258.247 148.650,258.129 148.560,258.129 148.450 C 258.129 148.339,257.680 147.972,257.132 147.634 C 256.583 147.295,256.131 146.933,256.127 146.830 C 256.124 146.726,256.003 146.642,255.859 146.642 C 255.619 146.642,255.398 146.492,254.542 145.749 C 254.375 145.603,254.040 145.409,253.798 145.317 C 253.556 145.226,253.358 145.034,253.358 144.892 C 253.358 144.749,253.241 144.633,253.097 144.633 C 252.953 144.633,252.699 144.519,252.532 144.379 C 251.190 143.258,249.597 142.122,249.368 142.122 C 249.169 142.122,249.090 145.329,249.090 153.421 M231.633 143.252 C 231.739 143.528,231.923 144.093,232.042 144.507 C 232.235 145.182,232.246 145.158,232.145 144.278 C 232.084 143.737,231.900 143.172,231.736 143.022 C 231.512 142.816,231.486 142.872,231.633 143.252 M166.834 146.260 C 166.748 146.603,166.790 147.309,166.929 147.830 C 167.173 148.751,167.180 148.734,167.206 147.207 C 167.233 145.559,167.097 145.213,166.834 146.260 M232.341 147.144 C 232.341 147.903,232.388 148.214,232.446 147.834 C 232.504 147.454,232.504 146.833,232.446 146.453 C 232.388 146.073,232.341 146.384,232.341 147.144 M231.983 149.404 C 231.905 149.887,231.760 150.508,231.661 150.785 C 231.562 151.061,231.664 150.970,231.889 150.582 C 232.113 150.195,232.258 149.573,232.211 149.201 C 232.133 148.583,232.113 148.601,231.983 149.404 M167.754 151.104 C 167.733 151.437,168.903 153.421,169.121 153.421 C 169.190 153.421,168.981 152.997,168.655 152.480 C 168.330 151.962,167.999 151.368,167.919 151.161 C 167.826 150.920,167.766 150.900,167.754 151.104 M229.789 153.798 C 229.350 154.281,229.080 154.677,229.191 154.677 C 229.379 154.677,229.597 154.451,230.476 153.350 C 231.090 152.583,230.612 152.893,229.789 153.798 M171.006 155.360 C 171.016 155.610,172.253 156.519,172.393 156.378 C 172.451 156.321,172.161 156.024,171.748 155.719 C 171.336 155.413,171.002 155.252,171.006 155.360 M227.502 155.819 C 227.023 156.157,226.740 156.434,226.875 156.433 C 227.009 156.432,227.458 156.154,227.872 155.814 C 228.839 155.022,228.628 155.024,227.502 155.819 M173.369 156.792 C 173.637 157.010,174.089 157.178,174.373 157.166 C 174.788 157.149,174.758 157.105,174.219 156.942 C 173.850 156.831,173.398 156.662,173.215 156.568 C 173.031 156.474,173.101 156.575,173.369 156.792 M225.851 156.661 C 225.719 156.786,225.386 156.942,225.110 157.009 C 224.620 157.126,224.620 157.130,225.125 157.159 C 225.409 157.175,225.861 157.022,226.129 156.819 C 226.397 156.616,226.498 156.447,226.353 156.442 C 226.208 156.438,225.982 156.536,225.851 156.661 M175.138 157.433 C 175.225 157.574,175.761 157.690,176.328 157.690 C 177.596 157.690,177.499 157.562,176.064 157.342 C 175.349 157.233,175.033 157.263,175.138 157.433 M222.976 157.439 L 222.097 157.624 223.023 157.657 C 223.533 157.675,224.020 157.577,224.105 157.439 C 224.274 157.166,224.270 157.166,222.976 157.439 M132.947 159.259 C 132.881 159.432,132.857 176.635,132.892 197.489 L 132.957 235.405 200.126 235.405 L 267.294 235.405 267.358 197.175 C 267.409 166.670,267.358 158.947,267.107 158.952 C 266.934 158.956,266.397 159.297,265.913 159.711 L 265.035 160.463 265.849 160.018 C 266.297 159.773,266.664 159.488,266.665 159.385 C 266.666 159.281,266.780 159.196,266.918 159.196 C 267.084 159.196,267.169 172.044,267.169 197.238 L 267.169 235.279 200.251 235.279 L 133.333 235.279 133.333 197.238 C 133.333 172.044,133.418 159.196,133.584 159.196 C 133.723 159.196,133.836 159.285,133.836 159.393 C 133.836 159.502,134.203 159.793,134.652 160.041 L 135.468 160.493 134.589 159.726 C 133.645 158.902,133.138 158.758,132.947 159.259 M136.175 161.070 C 136.563 161.449,136.937 161.703,137.005 161.635 C 137.073 161.567,136.755 161.257,136.298 160.946 L 135.468 160.382 136.175 161.070 M264.030 161.098 L 263.277 161.742 264.093 161.294 C 264.542 161.048,264.909 160.757,264.909 160.649 C 264.909 160.364,264.861 160.388,264.030 161.098 M137.932 162.325 C 138.321 162.704,138.695 162.958,138.763 162.890 C 138.831 162.822,138.513 162.512,138.056 162.202 L 137.225 161.637 137.932 162.325 M262.020 162.493 C 261.468 162.904,260.904 163.368,260.766 163.524 C 260.453 163.878,261.907 162.985,262.331 162.563 C 262.501 162.393,262.783 162.203,262.958 162.141 C 263.134 162.078,263.220 161.964,263.150 161.887 C 263.080 161.809,262.571 162.082,262.020 162.493 M140.694 164.334 C 141.083 164.713,141.457 164.967,141.525 164.899 C 141.593 164.831,141.275 164.521,140.818 164.211 L 139.987 163.646 140.694 164.334 M259.501 164.346 C 259.092 164.680,258.870 164.954,259.008 164.954 C 259.327 164.955,260.497 163.991,260.352 163.847 C 260.293 163.787,259.909 164.012,259.501 164.346 M256.748 166.371 L 255.995 167.015 256.811 166.567 C 257.260 166.321,257.627 166.030,257.627 165.922 C 257.627 165.637,257.579 165.661,256.748 166.371 M253.496 168.630 C 252.673 169.243,251.882 169.878,251.738 170.041 C 251.431 170.387,252.650 169.653,253.409 169.035 C 255.654 167.207,255.701 166.986,253.496 168.630 M204.230 168.177 C 204.070 168.279,209.907 168.362,217.200 168.362 C 224.493 168.362,230.408 168.277,230.344 168.173 C 230.194 167.930,204.613 167.933,204.230 168.177 M202.524 169.327 C 201.900 170.145,201.605 172.003,202.100 172.003 C 202.218 172.003,202.262 171.719,202.195 171.373 C 202.042 170.571,202.552 169.328,203.229 168.854 C 203.517 168.652,203.620 168.487,203.458 168.487 C 203.297 168.487,202.876 168.865,202.524 169.327 M231.466 169.185 C 231.837 169.570,232.188 169.852,232.246 169.812 C 232.391 169.714,231.221 168.487,230.983 168.487 C 230.878 168.487,231.095 168.801,231.466 169.185 M157.805 170.040 C 159.310 171.218,161.311 172.553,160.703 171.973 C 160.112 171.409,158.285 170.115,157.444 169.664 C 157.234 169.551,157.396 169.720,157.805 170.040 M149.153 170.336 C 149.153 170.405,149.492 170.703,149.906 170.998 C 150.320 171.293,150.659 171.478,150.659 171.409 C 150.659 171.340,150.320 171.042,149.906 170.747 C 149.492 170.452,149.153 170.267,149.153 170.336 M250.471 170.877 L 249.718 171.506 250.532 171.064 C 250.980 170.820,251.347 170.537,251.348 170.433 C 251.350 170.159,251.299 170.185,250.471 170.877 M239.925 171.842 C 239.510 172.164,238.437 172.923,237.539 173.528 C 236.642 174.133,235.625 174.904,235.279 175.242 L 234.652 175.855 235.530 175.233 C 240.137 171.974,241.103 171.236,240.741 171.252 C 240.706 171.254,240.339 171.519,239.925 171.842 M150.912 171.672 C 150.913 171.785,151.252 172.069,151.665 172.305 C 152.632 172.855,152.632 172.692,151.664 172.003 C 151.249 171.707,150.911 171.559,150.912 171.672 M248.713 172.120 C 248.299 172.460,248.050 172.742,248.159 172.747 C 248.269 172.752,248.663 172.473,249.035 172.128 C 249.905 171.322,249.693 171.317,248.713 172.120 M232.035 171.962 C 232.024 172.147,231.761 172.511,231.450 172.770 C 230.531 173.537,203.760 173.514,202.935 172.746 C 202.633 172.464,202.385 172.338,202.385 172.466 C 202.385 173.461,203.085 173.509,217.380 173.505 L 231.136 173.500 231.724 172.881 C 232.047 172.541,232.253 172.119,232.183 171.944 C 232.084 171.699,232.050 171.703,232.035 171.962 M162.064 173.087 C 163.316 174.171,166.011 175.962,165.000 175.039 C 164.533 174.612,164.074 174.262,163.981 174.262 C 163.887 174.262,163.589 174.056,163.318 173.803 C 163.046 173.550,162.488 173.143,162.078 172.898 L 161.331 172.452 162.064 173.087 M153.275 173.348 C 153.678 173.691,154.695 174.440,155.535 175.012 C 156.375 175.585,156.732 175.772,156.329 175.428 C 155.926 175.085,154.909 174.336,154.069 173.763 C 153.229 173.191,152.872 173.004,153.275 173.348 M245.951 174.159 L 245.198 174.806 246.014 174.266 C 246.463 173.969,246.830 173.677,246.830 173.618 C 246.830 173.430,246.724 173.495,245.951 174.159 M244.193 175.385 C 243.779 175.724,243.530 176.006,243.639 176.011 C 243.749 176.016,244.143 175.738,244.516 175.392 C 245.385 174.586,245.174 174.581,244.193 175.385 M166.584 176.363 C 167.901 177.482,170.500 179.199,169.520 178.303 C 169.053 177.876,168.594 177.527,168.500 177.527 C 168.407 177.527,168.112 177.328,167.844 177.085 C 167.576 176.842,167.018 176.441,166.604 176.192 L 165.851 175.741 166.584 176.363 M233.396 176.542 C 231.906 177.669,231.706 177.986,233.103 177.007 C 234.158 176.267,234.733 175.753,234.478 175.776 C 234.435 175.780,233.949 176.125,233.396 176.542 M157.795 176.612 C 158.198 176.956,159.215 177.705,160.055 178.277 C 160.895 178.849,161.252 179.036,160.849 178.692 C 160.446 178.349,159.429 177.600,158.589 177.028 C 157.749 176.456,157.392 176.269,157.795 176.612 M242.185 176.793 C 240.695 177.920,240.494 178.237,241.891 177.258 C 242.947 176.518,243.521 176.004,243.267 176.027 C 243.224 176.031,242.737 176.376,242.185 176.793 M230.760 178.457 L 230.132 179.106 230.948 178.550 C 231.749 178.005,231.950 177.763,231.576 177.793 C 231.472 177.801,231.105 178.100,230.760 178.457 M239.674 178.679 L 238.920 179.326 239.736 178.786 C 240.185 178.489,240.552 178.197,240.552 178.137 C 240.552 177.949,240.446 178.015,239.674 178.679 M170.496 179.153 C 170.496 179.207,170.835 179.492,171.249 179.787 C 171.664 180.082,172.002 180.231,172.001 180.118 C 172.000 180.005,171.661 179.720,171.248 179.484 C 170.834 179.249,170.496 179.100,170.496 179.153 M229.127 179.683 L 228.374 180.330 229.190 179.790 C 229.639 179.493,230.006 179.201,230.006 179.142 C 230.006 178.954,229.900 179.019,229.127 179.683 M161.768 179.431 C 161.850 179.563,162.455 180.058,163.112 180.530 C 163.769 181.001,164.239 181.279,164.158 181.147 C 164.076 181.014,163.471 180.520,162.814 180.048 C 162.157 179.576,161.686 179.298,161.768 179.431 M237.665 180.058 C 236.175 181.184,235.975 181.502,237.372 180.522 C 238.427 179.783,239.001 179.268,238.747 179.291 C 238.704 179.295,238.217 179.640,237.665 180.058 M172.254 180.399 C 172.254 180.451,172.847 180.916,173.572 181.432 C 174.297 181.949,174.677 182.131,174.415 181.837 C 173.971 181.335,172.254 180.194,172.254 180.399 M227.119 181.062 C 225.629 182.188,225.428 182.506,226.825 181.527 C 227.881 180.787,228.455 180.273,228.201 180.296 C 228.158 180.300,227.671 180.644,227.119 181.062 M164.470 181.385 C 164.470 181.454,164.809 181.751,165.223 182.046 C 165.637 182.341,165.976 182.526,165.976 182.457 C 165.976 182.388,165.637 182.090,165.223 181.795 C 164.809 181.500,164.470 181.315,164.470 181.385 M235.154 181.943 L 234.401 182.590 235.217 182.050 C 235.665 181.753,236.033 181.461,236.033 181.402 C 236.033 181.214,235.926 181.279,235.154 181.943 M175.016 182.418 C 175.016 182.471,175.355 182.756,175.769 183.051 C 176.183 183.346,176.522 183.495,176.521 183.382 C 176.520 183.269,176.181 182.984,175.767 182.749 C 175.354 182.513,175.016 182.364,175.016 182.418 M224.733 182.748 C 224.388 182.982,223.955 183.315,223.772 183.490 C 223.589 183.665,223.200 183.935,222.909 184.091 C 222.618 184.247,222.259 184.473,222.112 184.594 C 221.181 185.363,219.889 186.299,219.634 186.390 C 219.469 186.449,219.391 186.558,219.460 186.632 C 219.573 186.752,224.671 183.213,225.321 182.563 C 225.703 182.181,225.458 182.258,224.733 182.748 M166.288 182.695 C 166.370 182.828,166.975 183.322,167.632 183.794 C 168.289 184.266,168.759 184.543,168.677 184.411 C 168.595 184.278,167.991 183.784,167.334 183.312 C 166.677 182.840,166.206 182.563,166.288 182.695 M233.145 183.322 C 231.655 184.448,231.455 184.766,232.852 183.787 C 233.907 183.047,234.481 182.533,234.227 182.556 C 234.184 182.559,233.697 182.904,233.145 183.322 M176.942 183.824 C 177.254 184.201,178.782 185.163,178.782 184.982 C 178.782 184.923,178.302 184.559,177.715 184.171 C 177.128 183.784,176.780 183.628,176.942 183.824 M168.989 184.663 C 168.989 184.717,169.583 185.186,170.308 185.704 C 171.033 186.222,171.993 186.924,172.442 187.264 C 172.891 187.603,173.258 187.825,173.258 187.756 C 173.258 187.609,170.695 185.633,169.685 185.001 C 169.303 184.761,168.989 184.609,168.989 184.663 M230.634 185.207 L 229.881 185.854 230.697 185.314 C 231.146 185.017,231.513 184.726,231.513 184.666 C 231.513 184.478,231.407 184.543,230.634 185.207 M179.535 185.651 C 179.535 185.782,183.020 188.324,183.200 188.324 C 183.398 188.324,182.812 187.796,181.795 187.059 C 180.599 186.192,179.535 185.529,179.535 185.651 M227.872 187.216 L 227.119 187.863 227.935 187.323 C 228.384 187.026,228.751 186.734,228.751 186.675 C 228.751 186.487,228.644 186.552,227.872 187.216 M218.581 187.085 C 218.443 187.219,217.935 187.678,217.451 188.105 L 216.573 188.881 217.786 188.043 C 218.453 187.582,219.053 187.118,219.119 187.011 C 219.288 186.738,218.883 186.793,218.581 187.085 M173.570 187.968 C 173.660 188.113,174.445 188.722,175.316 189.321 C 176.187 189.919,176.729 190.241,176.522 190.036 C 175.939 189.459,173.386 187.670,173.570 187.968 M184.673 189.452 C 185.082 189.786,185.478 189.992,185.552 189.911 C 185.626 189.829,185.544 189.711,185.369 189.648 C 185.194 189.586,184.891 189.375,184.696 189.180 C 184.502 188.986,184.249 188.830,184.136 188.835 C 184.023 188.840,184.264 189.118,184.673 189.452 M215.631 189.288 C 215.252 189.518,214.941 189.797,214.941 189.910 C 214.941 190.023,215.279 189.874,215.694 189.579 C 216.809 188.785,216.770 188.601,215.631 189.288 M223.352 190.480 L 222.599 191.128 223.415 190.587 C 223.864 190.290,224.231 189.999,224.231 189.939 C 224.231 189.751,224.125 189.816,223.352 190.480 M214.062 190.335 C 213.923 190.461,213.415 190.918,212.932 191.351 L 212.053 192.137 213.266 191.303 C 213.933 190.844,214.533 190.382,214.599 190.275 C 214.763 190.010,214.371 190.054,214.062 190.335 M187.445 191.441 C 187.859 191.774,188.243 192.002,188.297 191.949 C 188.432 191.815,187.253 190.853,186.943 190.845 C 186.805 190.841,187.031 191.109,187.445 191.441 M178.029 191.177 C 178.029 191.246,178.368 191.544,178.782 191.839 C 179.196 192.134,179.535 192.319,179.535 192.250 C 179.535 192.181,179.196 191.883,178.782 191.588 C 178.368 191.293,178.029 191.108,178.029 191.177 M221.594 191.736 L 220.841 192.383 221.657 191.843 C 222.106 191.546,222.473 191.254,222.473 191.194 C 222.473 191.006,222.367 191.072,221.594 191.736 M188.776 192.404 C 188.920 192.577,189.415 192.925,189.874 193.178 L 190.709 193.638 189.831 192.871 C 188.955 192.107,188.276 191.807,188.776 192.404 M211.111 192.532 C 210.731 192.767,210.421 193.055,210.421 193.170 C 210.421 193.286,210.760 193.139,211.174 192.844 C 211.588 192.549,211.927 192.258,211.927 192.199 C 211.927 192.039,211.867 192.063,211.111 192.532 M179.787 192.433 C 179.787 192.502,180.126 192.800,180.540 193.095 C 180.954 193.390,181.293 193.575,181.293 193.506 C 181.293 193.437,180.954 193.139,180.540 192.844 C 180.126 192.549,179.787 192.364,179.787 192.433 M218.726 193.726 C 217.701 194.476,216.741 195.222,216.592 195.383 C 216.262 195.742,219.088 193.793,220.108 192.959 C 221.401 191.902,220.648 192.320,218.726 193.726 M208.851 194.171 C 208.195 194.612,207.659 195.066,207.659 195.179 C 207.659 195.388,209.858 193.898,210.079 193.540 C 210.263 193.242,210.136 193.308,208.851 194.171 M191.955 194.725 C 192.364 195.059,192.759 195.265,192.834 195.184 C 192.908 195.102,192.826 194.984,192.651 194.921 C 192.476 194.859,192.173 194.648,191.978 194.453 C 191.783 194.259,191.531 194.103,191.418 194.108 C 191.304 194.113,191.546 194.391,191.955 194.725 M182.925 194.769 C 183.135 194.977,187.062 197.837,188.324 198.701 C 188.531 198.843,188.410 198.671,188.055 198.318 C 187.700 197.966,186.955 197.391,186.400 197.041 C 185.845 196.690,185.232 196.248,185.037 196.058 C 184.842 195.868,184.231 195.444,183.679 195.117 C 183.126 194.789,182.787 194.633,182.925 194.769 M206.731 195.715 C 206.566 195.903,206.283 196.109,206.103 196.174 C 205.923 196.238,205.836 196.357,205.911 196.439 C 205.985 196.521,206.381 196.315,206.789 195.980 C 207.198 195.646,207.420 195.373,207.282 195.373 C 207.144 195.374,206.896 195.527,206.731 195.715 M215.084 196.366 C 214.541 196.777,214.202 197.109,214.331 197.106 C 214.568 197.099,216.425 195.619,216.196 195.620 C 216.127 195.620,215.626 195.956,215.084 196.366 M193.848 196.120 C 194.772 196.748,195.238 196.897,194.636 196.373 C 194.310 196.089,193.915 195.859,193.757 195.861 C 193.600 195.863,193.641 195.980,193.848 196.120 M204.578 197.247 C 204.063 197.597,203.641 197.943,203.641 198.014 C 203.641 198.201,205.134 197.300,205.449 196.924 C 205.839 196.458,205.621 196.538,204.578 197.247 M195.606 197.217 C 195.813 197.481,196.591 198.103,197.334 198.598 C 198.078 199.093,199.044 199.739,199.480 200.034 C 200.174 200.503,200.334 200.526,200.750 200.222 C 201.012 200.031,201.098 199.874,200.942 199.874 C 200.785 199.874,200.587 199.988,200.501 200.128 C 200.380 200.324,197.046 198.301,196.359 197.615 C 195.795 197.050,195.250 196.763,195.606 197.217 M213.315 197.607 C 213.068 197.880,212.654 198.171,212.396 198.253 C 212.138 198.335,211.927 198.520,211.927 198.666 C 211.927 198.875,212.712 198.394,213.915 197.446 C 213.973 197.401,213.962 197.306,213.893 197.236 C 213.823 197.166,213.563 197.333,213.315 197.607 M201.910 199.136 C 201.580 199.411,201.359 199.685,201.418 199.744 C 201.478 199.804,201.861 199.579,202.270 199.245 C 202.679 198.910,202.900 198.637,202.762 198.636 C 202.624 198.636,202.241 198.861,201.910 199.136 M188.826 198.975 C 188.826 199.122,192.296 201.632,192.498 201.632 C 192.588 201.632,192.222 201.301,191.686 200.896 C 191.149 200.491,190.355 199.870,189.922 199.515 C 189.180 198.908,188.826 198.734,188.826 198.975 M210.564 199.630 C 210.022 200.041,209.683 200.374,209.811 200.370 C 210.048 200.363,211.905 198.883,211.676 198.884 C 211.607 198.884,211.107 199.220,210.564 199.630 M208.537 201.032 C 207.494 201.881,207.430 201.928,206.102 202.838 C 205.453 203.283,204.850 203.765,204.761 203.908 C 204.673 204.051,205.486 203.534,206.569 202.759 C 209.526 200.642,209.520 200.647,209.401 200.529 C 209.340 200.469,208.952 200.695,208.537 201.032 M195.571 203.877 C 195.897 204.162,196.283 204.394,196.429 204.394 C 196.738 204.394,196.723 204.382,195.731 203.801 L 194.978 203.360 195.571 203.877 M203.892 204.344 C 203.892 204.455,203.382 204.868,202.759 205.262 C 202.135 205.656,201.677 206.029,201.739 206.091 C 201.892 206.245,204.143 204.616,204.143 204.352 C 204.143 204.237,204.087 204.143,204.018 204.143 C 203.949 204.143,203.892 204.234,203.892 204.344 M197.600 205.417 C 198.186 205.842,198.714 206.141,198.772 206.082 C 198.900 205.955,197.054 204.645,196.747 204.645 C 196.630 204.645,197.014 204.993,197.600 205.417 M199.286 206.466 C 199.350 206.569,199.784 206.654,200.251 206.654 C 200.718 206.654,201.153 206.569,201.217 206.466 C 201.281 206.362,200.846 206.277,200.251 206.277 C 199.656 206.277,199.221 206.362,199.286 206.466 " stroke="none" fill="#c2c4c4" fill-rule="evenodd"></path></g></svg>