<svg width="631" height="330" viewBox="0 0 875 394" fill="none" xmlns="http://www.w3.org/2000/svg">
<path d="M328 175.562H348.398C353.064 175.562 356.564 176.506 358.897 178.393C361.23 180.214 362.73 182.641 363.397 185.674C364.13 188.641 364.496 192.551 364.496 197.405C364.496 202.124 364.13 206 363.397 209.034C362.73 212 361.23 214.427 358.897 216.315C356.564 218.203 353.064 219.147 348.398 219.147H335.499V245.136H328V175.562ZM346.398 212.573C349.598 212.573 351.931 212.034 353.398 210.955C354.931 209.877 355.897 208.326 356.297 206.304C356.764 204.214 356.997 201.248 356.997 197.405C356.997 193.495 356.764 190.528 356.297 188.506C355.897 186.416 354.964 184.865 353.498 183.854C352.031 182.775 349.698 182.236 346.498 182.236H335.499V212.573H346.398Z" fill="#888888" fill-opacity="0.8"/>
<path d="M384.079 245.945C379.413 245.945 376.046 244.866 373.98 242.709C371.913 240.551 370.88 236.641 370.88 230.978C370.88 227.068 371.247 224.034 371.98 221.877C372.78 219.652 374.08 218.068 375.88 217.124C377.746 216.18 380.346 215.708 383.679 215.708C385.612 215.708 390.012 215.877 396.878 216.214V212.573C396.878 208.326 396.578 205.293 395.978 203.472C395.445 201.585 394.411 200.371 392.878 199.832C391.412 199.225 388.945 198.922 385.479 198.922C383.946 198.922 381.946 199.056 379.479 199.326C377.08 199.528 375.047 199.764 373.38 200.034V194.169C377.713 193.225 382.412 192.753 387.479 192.753C392.145 192.753 395.611 193.326 397.878 194.472C400.211 195.618 401.811 197.573 402.677 200.337C403.544 203.101 403.977 207.146 403.977 212.472V245.136H397.678L397.278 238.057H396.778C395.778 241.225 394.145 243.349 391.878 244.428C389.678 245.439 387.079 245.945 384.079 245.945ZM386.379 239.776C388.712 239.776 390.812 239.506 392.078 238.967C393.545 238.36 394.645 237.113 395.378 235.225C396.378 232.529 396.878 228.922 396.878 224.405V221.068H385.479C383.346 221.068 381.746 221.304 380.879 221.776C379.679 222.18 378.946 223.057 378.48 224.405C378.08 225.686 377.88 227.708 377.88 230.473C377.88 233.102 378.08 235.057 378.48 236.338C378.946 237.619 379.779 238.529 380.979 239.068C382.179 239.54 383.979 239.776 386.379 239.776Z" fill="#888888" fill-opacity="0.8"/>
<path d="M429.855 265.259C425.255 265.259 420.789 265.023 416.456 264.552V258.686C421.656 258.956 425.689 259.091 428.555 259.091C432.555 259.091 435.421 258.585 437.154 257.574C438.954 256.563 440.121 254.776 440.854 252.214C441.254 249.72 441.554 245.675 441.554 240.079V238.563H441.054C440.187 241.124 438.788 242.945 436.854 244.023C434.921 245.102 432.355 245.641 429.155 245.641C425.155 245.641 422.122 244.9 420.056 243.417C418.056 241.933 416.656 239.338 415.856 235.63C415.056 231.922 414.657 226.461 414.657 219.248C414.657 212.034 415.056 206.573 415.856 202.866C416.723 199.09 418.156 196.461 420.156 194.978C422.222 193.495 425.255 192.753 429.255 192.753C432.255 192.753 434.788 193.326 436.854 194.472C438.987 195.551 440.521 197.641 441.454 200.742H441.954L442.354 193.562H448.653V237.652C448.653 245.068 448.22 250.83 447.353 254.338C446.553 258.113 444.82 260.877 442.154 262.63C439.554 264.383 435.455 265.259 429.855 265.259ZM431.755 239.27C434.221 239.27 436.154 238.765 437.554 237.754C438.954 236.742 439.921 235.124 440.454 232.9C441.187 230.068 441.554 225.517 441.554 219.248C441.554 216.012 441.487 213.416 441.354 211.461C441.287 209.439 441.054 207.72 440.854 206.304C440.054 203.742 439.054 201.922 437.654 200.843C436.254 199.764 434.288 199.225 431.755 199.225C428.622 199.225 426.389 199.663 425.056 200.54C423.789 201.416 422.922 203.203 422.456 205.899C421.989 208.528 421.756 212.978 421.756 219.248C421.756 225.517 421.989 230.001 422.456 232.697C422.922 235.327 423.789 237.079 425.056 237.956C426.389 238.832 428.622 239.27 431.755 239.27Z" fill="#888888" fill-opacity="0.8"/>
<path d="M492.969 221.675H466.771C466.771 227.135 467.004 231.079 467.471 233.506C468.004 235.866 469.071 237.518 470.871 238.461C472.337 239.338 475.104 239.776 478.97 239.776C483.369 239.776 487.569 239.405 491.569 238.664V244.529C490.035 244.933 487.936 245.27 485.269 245.54C482.603 245.81 480.036 245.945 477.57 245.945C472.171 245.945 468.238 245.169 465.771 243.619C463.305 242.001 461.672 239.405 460.872 235.832C460.072 232.259 459.672 226.798 459.672 219.45C459.672 212.102 460.005 206.675 460.872 203.169C461.338 199.596 462.871 196.967 465.271 195.281C467.738 193.596 471.671 192.753 477.07 192.753C482.136 192.753 485.769 193.562 487.969 195.18C490.169 196.798 491.535 199.326 492.069 202.764C492.669 206.203 492.969 211.731 492.969 219.349V221.675ZM476.97 198.821C473.837 198.821 471.571 199.225 470.171 200.034C468.771 200.843 467.838 202.427 467.371 204.787C466.971 207.079 466.771 210.922 466.771 216.315H486.169V215.102C486.169 210.18 485.903 206.607 485.369 204.382C484.836 202.09 483.936 200.807 482.669 199.933C481.47 199.191 479.57 198.821 476.97 198.821Z" fill="#888888" fill-opacity="0.8"/>
<path d="M549.175 215C549.175 210.146 548.942 206.675 548.475 204.585C548.075 202.427 547.275 201.012 546.075 200.337C544.875 199.596 542.909 199.225 540.176 199.225C537.109 199.225 534.876 199.967 533.476 201.45C532.076 202.933 531.21 204.922 530.877 207.416C530.543 209.911 530.377 213.551 530.377 218.338V245.136H523.277V193.562H529.477L529.877 200.742H530.477C531.277 198.18 532.643 196.225 534.576 194.877C536.576 193.461 539.409 192.753 543.075 192.753C546.808 192.753 549.608 193.427 551.475 194.776C553.408 196.124 554.674 198.18 555.274 200.944C555.941 203.641 556.274 207.517 556.274 212.573V245.136H549.175V215Z" fill="#888888" fill-opacity="0.8"/>
<path d="M584.284 245.945C578.884 245.945 574.985 245.237 572.585 243.821C570.252 242.405 568.719 239.945 567.986 236.439C567.319 232.933 566.986 227.237 566.986 219.349C566.986 211.461 567.319 205.764 567.986 202.259C568.719 198.753 570.252 196.292 572.585 194.877C574.985 193.461 578.884 192.753 584.284 192.753C589.683 192.753 593.55 193.461 595.883 194.877C598.283 196.292 599.816 198.753 600.482 202.259C601.149 205.764 601.482 211.461 601.482 219.349C601.482 227.237 601.149 232.933 600.482 236.439C599.816 239.945 598.283 242.405 595.883 243.821C593.55 245.237 589.683 245.945 584.284 245.945ZM584.284 239.776C587.617 239.776 589.95 239.304 591.283 238.36C592.683 237.416 593.55 235.664 593.883 233.102C594.216 230.54 594.383 225.956 594.383 219.349C594.383 212.742 594.216 208.158 593.883 205.596C593.55 203.034 592.683 201.281 591.283 200.337C589.95 199.394 587.617 198.922 584.284 198.922C580.884 198.922 578.518 199.394 577.185 200.337C575.851 201.281 574.985 203.068 574.585 205.697C574.252 208.259 574.085 212.809 574.085 219.349C574.085 225.888 574.252 230.473 574.585 233.102C574.985 235.664 575.851 237.416 577.185 238.36C578.518 239.304 580.884 239.776 584.284 239.776Z" fill="#888888" fill-opacity="0.8"/>
<path d="M615.138 245.136V199.731H607.739V193.562H615.138V178.596H622.237V193.562H631.036V199.731H622.237V245.136H615.138Z" fill="#888888" fill-opacity="0.8"/>
<path d="M661.716 199.731H654.316V193.562H661.716V184.865C661.716 180.348 662.216 177.045 663.215 174.955C664.282 172.865 665.915 171.517 668.115 170.91C670.381 170.303 673.781 170 678.314 170V175.663C675.581 175.663 673.548 175.865 672.215 176.27C670.948 176.607 670.048 177.348 669.515 178.494C669.048 179.573 668.815 181.259 668.815 183.551V193.562H678.314V199.731H668.815V245.136H661.716V199.731Z" fill="#888888" fill-opacity="0.8"/>
<path d="M701.948 245.945C696.549 245.945 692.649 245.237 690.25 243.821C687.916 242.405 686.383 239.945 685.65 236.439C684.983 232.933 684.65 227.237 684.65 219.349C684.65 211.461 684.983 205.764 685.65 202.259C686.383 198.753 687.916 196.292 690.25 194.877C692.649 193.461 696.549 192.753 701.948 192.753C707.348 192.753 711.214 193.461 713.547 194.877C715.947 196.292 717.48 198.753 718.147 202.259C718.813 205.764 719.147 211.461 719.147 219.349C719.147 227.237 718.813 232.933 718.147 236.439C717.48 239.945 715.947 242.405 713.547 243.821C711.214 245.237 707.348 245.945 701.948 245.945ZM701.948 239.776C705.281 239.776 707.615 239.304 708.948 238.36C710.348 237.416 711.214 235.664 711.547 233.102C711.881 230.54 712.047 225.956 712.047 219.349C712.047 212.742 711.881 208.158 711.547 205.596C711.214 203.034 710.348 201.281 708.948 200.337C707.615 199.394 705.281 198.922 701.948 198.922C698.549 198.922 696.182 199.394 694.849 200.337C693.516 201.281 692.649 203.068 692.249 205.697C691.916 208.259 691.749 212.809 691.749 219.349C691.749 225.888 691.916 230.473 692.249 233.102C692.649 235.664 693.516 237.416 694.849 238.36C696.182 239.304 698.549 239.776 701.948 239.776Z" fill="#888888" fill-opacity="0.8"/>
<path d="M756.188 237.956H755.689C754.889 240.518 753.489 242.506 751.489 243.922C749.556 245.27 746.756 245.945 743.09 245.945C739.357 245.945 736.524 245.27 734.591 243.922C732.724 242.574 731.458 240.551 730.791 237.855C730.191 235.091 729.891 231.18 729.891 226.124V193.562H736.99V223.697C736.99 228.619 737.19 232.124 737.59 234.214C738.057 236.304 738.89 237.72 740.09 238.461C741.29 239.136 743.256 239.473 745.989 239.473C748.989 239.473 751.189 238.765 752.589 237.349C753.989 235.866 754.855 233.877 755.189 231.383C755.589 228.821 755.789 225.147 755.789 220.36V193.562H762.888V245.136H756.588L756.188 237.956Z" fill="#888888" fill-opacity="0.8"/>
<path d="M801.397 215C801.397 210.146 801.163 206.675 800.897 204.585C800.297 202.427 799.497 201.012 798.297 200.337C797.097 199.596 795.131 199.225 792.398 199.225C789.331 199.225 787.098 199.967 785.698 201.45C784.298 202.933 783.432 204.922 783.098 207.416C782.765 209.911 782.598 213.551 782.598 218.338V245.136H775.499V193.562H781.699L782.098 200.742H782.698C783.498 198.18 784.865 196.225 786.798 194.877C788.798 193.461 791.631 192.753 795.297 192.753C799.03 192.753 801.83 193.427 803.696 194.776C805.63 196.124 806.896 198.18 807.496 200.944C808.163 203.641 808.496 207.517 808.496 212.573V245.136H801.397V215Z" fill="#888888" fill-opacity="0.8"/>
<path d="M833.706 245.945C829.773 245.945 826.773 245.203 824.707 243.72C822.707 242.237 821.274 239.641 820.407 235.933C819.607 232.225 819.207 226.731 819.207 219.45C819.207 212.236 819.607 206.742 820.407 202.967C821.207 199.191 822.607 196.562 824.607 195.079C826.673 193.528 829.673 192.753 833.606 192.753C836.806 192.753 839.372 193.292 841.305 194.371C843.238 195.45 844.672 197.27 845.605 199.832H846.105V170H853.204V245.136H846.905L846.505 238.057H846.005C845.072 241.158 843.538 243.248 841.405 244.327C839.339 245.405 836.772 245.945 833.706 245.945ZM836.306 239.473C838.772 239.473 840.705 239.001 842.105 238.057C843.505 237.113 844.472 235.562 845.005 233.405C845.472 231.652 845.772 229.697 845.905 227.54C846.038 225.315 846.105 222.315 846.105 218.54C846.105 212.809 845.805 208.764 845.205 206.405C844.672 203.776 843.672 201.922 842.205 200.843C840.805 199.764 838.772 199.225 836.106 199.225C833.106 199.225 830.94 199.663 829.606 200.54C828.273 201.416 827.373 203.203 826.907 205.899C826.507 208.596 826.307 213.079 826.307 219.349C826.307 225.619 826.54 230.102 827.007 232.798C827.473 235.495 828.34 237.282 829.606 238.158C830.94 239.034 833.173 239.473 836.306 239.473Z" fill="#888888" fill-opacity="0.8"/>
<path d="M867.522 225.821C867.389 221.506 867.189 216.888 866.922 211.967C866.322 197.674 866.022 189.214 866.022 186.584V175.562H874.222V186.584C874.222 189.753 873.955 197.203 873.422 208.933L872.822 225.821H867.522ZM866.022 245.136V236.034H874.222V245.136H866.022Z" fill="#888888" fill-opacity="0.8"/>
<path d="M211.483 170V154.352H187.003V148.688L204.475 103.952H212.059L194.587 148.016H211.579L212.923 123.536H218.683V148.016H225.595V154.352H218.683V170H211.483ZM252.07 170.768C246.246 170.768 242.118 169.936 239.686 168.272C237.254 166.544 235.686 163.504 234.982 159.152C234.278 154.736 233.926 147.344 233.926 136.976C233.926 126.608 234.278 119.248 234.982 114.896C235.686 110.48 237.254 107.44 239.686 105.776C242.118 104.048 246.246 103.184 252.07 103.184C258.022 103.184 262.214 104.048 264.646 105.776C267.078 107.44 268.614 110.416 269.254 114.704C269.894 118.928 270.214 126.352 270.214 136.976C270.214 147.344 269.862 154.736 269.158 159.152C268.454 163.504 266.886 166.544 264.454 168.272C262.022 169.936 257.894 170.768 252.07 170.768ZM252.07 164.432C255.718 164.432 258.214 163.952 259.558 162.992C260.966 162.032 261.894 159.792 262.342 156.272C262.79 152.688 263.014 146.256 263.014 136.976C263.014 127.696 262.79 121.296 262.342 117.776C261.894 114.192 260.966 111.92 259.558 110.96C258.214 110 255.718 109.52 252.07 109.52C248.358 109.52 245.798 110 244.39 110.96C243.046 111.92 242.15 114.16 241.702 117.68C241.318 121.2 241.126 127.632 241.126 136.976C241.126 146.32 241.318 152.752 241.702 156.272C242.15 159.792 243.046 162.032 244.39 162.992C245.798 163.952 248.358 164.432 252.07 164.432ZM302.89 170V154.352H278.41V148.688L295.882 103.952H303.466L285.994 148.016H302.986L304.33 123.536H310.09V148.016H317.002V154.352H310.09V170H302.89Z" fill="#FF0000"/>
<path d="M317.868 199.868C309.228 208.819 298.892 215.959 287.463 220.872C276.033 225.785 263.74 228.372 251.3 228.482C238.86 228.592 226.522 226.222 215.008 221.513C203.493 216.803 193.033 209.846 184.236 201.049C175.439 192.253 168.483 181.792 163.773 170.277C159.063 158.763 156.694 146.426 156.804 133.986C156.914 121.546 159.501 109.252 164.413 97.8227C169.326 86.3933 176.466 76.057 185.417 67.4171C194.057 58.4662 204.393 51.326 215.823 46.4133C227.252 41.5005 239.546 38.9137 251.986 38.8037C264.426 38.6937 276.763 41.0627 288.277 45.7727C299.792 50.4826 310.253 57.439 319.049 66.2358C327.846 75.0325 334.803 85.4934 339.513 97.0078C344.223 108.522 346.592 120.86 346.482 133.3C346.372 145.74 343.785 158.033 338.872 169.463C333.959 180.892 326.819 191.228 317.868 199.868V199.868Z" fill="url(#paint0_linear_1_16)" stroke="#A6A3A3" stroke-opacity="0.95" stroke-width="22"/>
<path d="M299.858 160.007C297.313 162.642 294.269 164.744 290.902 166.19C287.536 167.637 283.916 168.398 280.252 168.43C276.589 168.462 272.956 167.764 269.565 166.377C266.174 164.989 263.093 162.941 260.503 160.35C257.912 157.759 255.863 154.679 254.476 151.288C253.089 147.897 252.391 144.264 252.423 140.8C252.455 136.937 253.216 133.316 254.662 129.95C256.108 126.584 258.211 123.54 260.846 120.995C263.391 118.359 266.435 116.257 269.802 114.811C273.168 113.365 276.788 112.603 280.452 112.571C284.115 112.539 287.748 113.237 291.139 114.625C294.53 116.012 297.611 118.06 300.201 120.851C302.792 123.242 304.841 126.322 306.228 129.713C307.615 133.104 308.313 136.737 308.281 140.401C308.249 144.064 307.488 147.685 306.042 151.051C304.596 154.417 302.493 157.462 299.858 160.007V160.007Z" fill="white" fill-opacity="0.45"/>
<path d="M211.785 231.785L161.791 181.791C155.393 175.393 147.013 173.402 143.072 177.342L134.059 186.355C130.119 190.296 132.11 198.676 138.508 205.074L188.502 255.068C194.9 261.466 203.281 263.458 207.221 259.517L216.234 250.505C220.175 246.564 218.183 238.183 211.785 231.785Z" fill="#A6A3A3"/>
<path d="M177.422 242.989L150.596 216.163C144.198 209.765 134.997 208.594 130.044 213.547L8.96833 334.622C4.01527 339.576 5.18636 348.777 11.584 355.175L38.4101 382.001C44.8078 388.399 54.0094 389.57 58.9625 384.617L180.038 263.541C184.991 258.588 183.82 249.386 177.422 242.989Z" fill="#565656"/>
<path d="M145.917 211.87C141.269 208.888 134.811 209.649 130.466 213.994L9.41555 335.044C5.06991 339.39 4.30947 345.848 7.29106 350.496C30.8058 341.877 60.87 321.573 88.8563 293.387C117.043 265.2 137.298 235.384 145.917 211.87V211.87Z" fill="url(#paint1_linear_1_16)"/>
<defs>
<linearGradient id="paint0_linear_1_16" x1="148.215" y1="43.2599" x2="269.899" y2="148.862" gradientUnits="userSpaceOnUse">
<stop stop-color="white" stop-opacity="0.95"/>
<stop offset="1" stop-color="#64BEC8" stop-opacity="0.19608"/>
</linearGradient>
<linearGradient id="paint1_linear_1_16" x1="38.2275" y1="242.806" x2="98.5956" y2="303.174" gradientUnits="userSpaceOnUse">
<stop stop-color="#C7C7C7"/>
<stop offset="1" stop-color="#C7C7C7" stop-opacity="0"/>
</linearGradient>
</defs>
</svg>
