<svg fill="#0d6efd" height="72" viewBox="0 0 64 64" width="72" xmlns="http://www.w3.org/2000/svg"><path d="m31.535 32.5c-2.483 0-4.5-1.744-4.5-3.889s2.02-3.888 4.5-3.888a4.91 4.91 0 0 1 3.465 1.377.5.5 0 0 1 -.707.707 3.9 3.9 0 0 0 -2.754-1.083c-1.932 0-3.5 1.3-3.5 2.888s1.561 2.888 3.496 2.888a.5.5 0 0 1 0 1z"/><path d="m31.535 39.277a4.48 4.48 0 0 1 -4.2-2.494.5.5 0 1 1 .916-.4 3.53 3.53 0 0 0 3.282 1.9c1.941 0 3.52-1.3 3.52-2.888s-1.577-2.895-3.518-2.895a.5.5 0 1 1 0-1c2.492 0 4.52 1.744 4.52 3.889s-2.028 3.888-4.52 3.888z"/><path d="m18.744 32.342c-2.483 0-4.5-1.744-4.5-3.889s2.02-3.889 4.5-3.889a4.907 4.907 0 0 1 3.462 1.376.5.5 0 0 1 -.708.707 3.9 3.9 0 0 0 -2.754-1.083c-1.931 0-3.5 1.3-3.5 2.889s1.572 2.889 3.5 2.889a.5.5 0 0 1 0 1z"/><path d="m18.744 39.119a4.48 4.48 0 0 1 -4.2-2.494.5.5 0 0 1 .916-.4 3.532 3.532 0 0 0 3.282 1.9c1.942 0 3.521-1.3 3.521-2.889s-1.579-2.888-3.521-2.888a.5.5 0 0 1 0-1c2.493 0 4.521 1.744 4.521 3.888s-2.026 3.883-4.519 3.883z"/><path d="m44.2 39.436h-4.011a.5.5 0 0 1 -.5-.5v-13.509a.5.5 0 0 1 .5-.5h4.011a7.042 7.042 0 0 1 6.791 7.254 7.043 7.043 0 0 1 -6.791 7.255zm-3.508-1h3.508a6.043 6.043 0 0 0 5.791-6.255 6.043 6.043 0 0 0 -5.791-6.254h-3.511z"/><path d="m53.542 46.92h-43.084a2.961 2.961 0 0 1 -2.958-2.958v-23.924a2.961 2.961 0 0 1 2.958-2.958h43.084a2.961 2.961 0 0 1 2.958 2.958v23.924a2.961 2.961 0 0 1 -2.958 2.958zm-43.084-28.84a1.96 1.96 0 0 0 -1.958 1.958v23.924a1.96 1.96 0 0 0 1.958 1.958h43.084a1.96 1.96 0 0 0 1.958-1.958v-23.924a1.96 1.96 0 0 0 -1.958-1.958z"/></svg>